<?xml-stylesheet type="text/css" href="map.css"?>
<svg xmlns="http://www.w3.org/2000/svg" viewBox="-11650 -18648 43866 45756">
<g class="floors">
<polygon class="poly-platform" points="6048,11008 7360,11008 7360,11200 6040,11200"/>
<polygon class="poly" points="5328,11933 6040,11200 7360,11200 6696,12312 5952,12816"/>
<polygon class="poly" points="7360,11200 8083,11923 7584,12736 6696,12312"/>
<polygon class="poly" points="8083,11923 8640,11904 9319,12647 7584,12736"/>
<polygon class="poly-major-ouch" points="5952,12816 6696,12312 7584,12736 7200,13664 6368,13632"/>
<polygon class="poly" points="6368,13632 7200,13664 7933,14544 7220,15120 6180,15120 5477,14553"/>
<polygon class="poly" points="128,4224 384,4096 256,5120 60,5148"/>
<polygon class="poly" points="-1024,8960 -896,9216 -1792,9600 -1792,9344"/>
<polygon class="poly-platform" points="-2304,5888 -2048,5888 -2048,6656 -2304,6656"/>
<polygon class="poly-platform" points="1281,9854 1536,10112 384,11264 128,11008"/>
<polygon class="poly" points="3972,12656 4092,12656 4092,14192 3972,14190"/>
<polygon class="poly-platform" points="3786,12656 3972,12656 3972,14190 3786,14190"/>
<polygon class="poly" points="4704,11928 5328,11933 5952,12816 6368,13632 5477,14553 4453,14553 4092,14192 4092,12656"/>
<polygon class="poly" points="1536,10112 1920,11264 384,11648 384,11264"/>
<polygon class="poly" points="384,11648 1920,11264 1920,11904 384,12416"/>
<polygon class="poly" points="384,12416 1920,11904 2556,12656 2124,14190"/>
<polygon class="poly" points="2556,12656 3786,12656 3786,14190 2124,14190"/>
<polygon class="poly" points="-1792,9600 -896,9216 0,10880 -1536,10880"/>
<polygon class="poly" points="1152,9728 1281,9854 128,11008 0,10880"/>
<polygon class="poly" points="-896,9216 1152,9728 0,10880"/>
<polygon class="poly" points="7584,12736 9319,12647 9319,14183 8957,14544 7933,14544 7200,13664"/>
<polygon class="poly" points="9319,12647 9440,12640 9440,14176 9319,14183"/>
<polygon class="poly-platform" points="9440,12640 9632,12640 9632,14176 9440,14176"/>
<polygon class="poly" points="9632,12640 10343,12647 10343,14183 9632,14176"/>
<polygon class="poly" points="10343,12647 11791,14095 11429,15269 10343,14183"/>
<polygon class="poly" points="11791,14095 12288,14432 12224,15008 11429,15269"/>
<polygon class="poly" points="12514,13371 12832,13856 12288,14432 11791,14095"/>
<polygon class="poly" points="12514,13371 14050,13371 13344,13824 12832,13856"/>
<polygon class="poly" points="13344,13824 14050,13371 14552,14812 14040,14812 13536,14400"/>
<polygon class="poly" points="13536,14400 14040,14812 12591,16260 12448,15488"/>
<polygon class="poly-major-ouch" points="12288,14432 12832,13856 13344,13824 13536,14400 12448,15488 12224,15008"/>
<polygon class="poly" points="11429,15269 12224,15008 12448,15488 12591,16260 11790,16142 11429,15781"/>
<polygon class="poly" points="14050,13371 14412,13008 15436,13008 16522,14094 14914,15174 14552,14812"/>
<polygon class="poly" points="14914,15174 16522,14094 16522,16142 14914,16198"/>
<polygon class="poly" points="14914,16198 16522,16142 15074,17589 13829,17284"/>
<polygon class="poly" points="13829,17284 15074,17589 15074,19125 13829,18820"/>
<polygon class="poly" points="13829,18820 15074,19125 13625,20573 13106,19544"/>
<polygon class="poly" points="10184,19182 10546,19544 10041,20573 9679,20211"/>
<polygon class="poly" points="9672,19182 10184,19182 9679,20211 9167,20211"/>
<polygon class="poly" points="9280,18816 9672,19182 9167,20211 8804,19848"/>
<polygon class="poly" points="7262,18820 9280,18816 8804,19848 6756,19848"/>
<polygon class="poly" points="6901,18459 7262,18820 6756,19848 6393,19485"/>
<polygon class="poly" points="5369,18452 5470,18455 5470,19485 5369,19485"/>
<polygon class="poly" points="4352,18976 4448,18624 5369,18452 5369,19485 4544,19392"/>
<polygon class="poly" points="3980,18098 5004,18098 5369,18452 4448,18624"/>
<polygon class="poly" points="3619,18460 3980,18098 4448,18624 4352,18976"/>
<polygon class="poly" points="3619,18460 4352,18976 4544,19392 3982,19847 3619,19484"/>
<polygon class="poly" points="4544,19392 5369,19485 5006,19847 3982,19847"/>
<polygon class="poly" points="10546,19544 13106,19544 13625,20573 10041,20573"/>
<polygon class="poly-platform" points="5470,18455 5568,18432 5570,19485 5470,19485"/>
<polygon class="poly" points="5568,18432 6901,18459 6393,19485 5570,19485"/>
<polygon class="poly-platform" points="14408,12888 15432,12888 15436,13008 14412,13008"/>
<polygon class="poly" points="14412,10960 15424,10432 15432,12888 14408,12888"/>
<polygon class="poly" points="13687,10235 14848,9792 15424,10432 14412,10960"/>
<polygon class="poly" points="13687,9211 14364,8505 14848,9472 14848,9792 13687,10235"/>
<polygon class="poly" points="14364,8505 16317,8442 17298,8442 19593,8505 19072,9472 14848,9472"/>
<polygon class="poly" points="19072,9472 19593,8505 20424,9292 20416,10112 19392,9856"/>
<polygon class="poly" points="19392,9856 20416,10112 20424,11199 19392,11776"/>
<polygon class="poly" points="19392,11776 20424,11199 20160,12864 19392,13504 18240,13120"/>
<polygon class="poly" points="17280,11776 19392,11776 18240,13120 17856,12672"/>
<polygon class="poly" points="17280,11776 17856,12672 17408,13120 16512,12608"/>
<polygon class="poly" points="16512,12608 17408,13120 17792,13504 17136,14364 16546,13716"/>
<polygon class="poly" points="17792,13504 18240,13120 19392,13504 18354,14352"/>
<polygon class="poly" points="17136,14364 17792,13504 18354,14352 18354,19642 17088,19264"/>
<polygon class="poly" points="17088,19264 18354,19642 17434,20516 16317,20160"/>
<polygon class="poly" points="16317,20160 17434,20516 17664,20838 17100,21840 16317,21168"/>
<polygon class="poly" points="17664,20838 22080,20608 22302,21840 17100,21840"/>
<polygon class="poly" points="23552,19968 23808,20096 23808,21504 23552,21632"/>
<polygon class="poly" points="27648,4864 28672,4864 28672,13824 27648,13824"/>
<polygon class="poly-platform" points="27648,13824 28672,13824 28672,14720 27648,14720"/>
<polygon class="poly-platform" points="16308,7470 17298,7470 17298,8193 16317,8193"/>
<polygon class="poly" points="16317,8193 17298,8193 17298,8442 16317,8442"/>
<polygon class="poly" points="27520,13824 27648,13824 27648,14720 27520,14720"/>
<polygon class="poly" points="25872,-2805 28677,-2805 27687,-2178 25872,-2178"/>
<polygon class="poly" points="27687,-2178 28677,-2805 28672,960 27648,960"/>
<polygon class="poly" points="24519,-3069 24684,-3564 25707,-3564 25872,-2805 25872,-2178 25674,-1485 24651,-1485 24519,-2045"/>
<polygon class="poly" points="24651,-1485 25674,-1485 25672,-1368 24648,-1368"/>
<polygon class="poly" points="24684,-3644 25704,-3644 25707,-3564 24684,-3564"/>
<polygon class="poly" points="24440,-3068 24519,-3069 24519,-2045 24440,-2041"/>
<polygon class="poly" points="27648,17664 27904,17920 27904,18816 27648,19072"/>
<polygon class="poly" points="27648,19840 27904,20096 27904,21248 27648,21504"/>
<polygon class="poly" points="27648,22272 27904,22528 27904,23680 27648,23936"/>
<polygon class="poly-major-ouch" points="27648,960 28672,960 29440,2176 28480,2400 27840,2400 26880,2176"/>
<polygon class="poly-major-ouch" points="26880,3840 27840,3392 28480,3392 29440,3840 28672,4864 27648,4864"/>
<polygon class="poly-major-ouch" points="26880,2176 27840,2400 27840,3392 26880,3840"/>
<polygon class="poly-major-ouch" points="28480,2400 29440,2176 29440,3840 28480,3392"/>
<polygon class="poly-platform" points="27840,2400 28480,2400 28480,3392 27840,3392"/>
<polygon class="poly" points="23552,22912 23808,22912 23808,23680 23552,23680"/>
<polygon class="poly-platform" points="23296,22912 23552,22912 23552,23680 23296,23680"/>
<polygon class="poly" points="19840,22912 23296,22912 23296,23680 19305,23679"/>
<polygon class="poly" points="18304,22272 19200,22016 19840,22912 19305,23679"/>
<polygon class="poly-platform" points="6040,5460 7360,5460 7360,5640 6040,5640"/>
<polygon class="poly" points="6040,5640 7360,5640 7060,7060 6380,7060"/>
<polygon class="poly-major-ouch" points="7360,5640 7660,5780 7660,10740 7360,11008 7060,9720 7060,7060"/>
<polygon class="poly" points="6380,7060 7060,7060 7060,9720 6380,9720"/>
<polygon class="poly" points="6380,9720 7060,9720 7360,11008 6048,11008"/>
<polygon class="poly-major-ouch" points="5740,5820 6040,5640 6380,7060 6380,9720 6048,11008 5740,10740"/>
<polygon class="poly" points="6016,-3712 7360,-2048 7360,5460 6040,5460"/>
<polygon class="poly" points="7296,-4512 8864,-4224 7808,-2048 7360,-2048 6016,-3712"/>
<polygon class="poly" points="27136,13568 27520,13824 27520,14720 26496,14720"/>
<polygon class="poly" points="10250,3825 12656,3260 12432,4605 10485,5240 8704,4736"/>
<polygon class="poly" points="12432,4605 12656,3260 16256,5568 15808,6848"/>
<polygon class="poly" points="19370,4513 19264,5824 15808,6848 16256,5568"/>
<polygon class="poly" points="19370,4513 22268,5533 21176,6555 19264,5824"/>
<polygon class="poly" points="21176,6555 22268,5533 24160,10144 22058,8402"/>
<polygon class="poly" points="22058,8402 24160,10144 23392,12992 22304,12512 22077,10449"/>
<polygon class="poly" points="22304,12512 23392,12992 21600,15008 20224,15232 20992,13504"/>
<polygon class="poly" points="20224,15232 21600,15008 21841,17560 20733,17775"/>
<polygon class="poly" points="21841,17560 23552,19968 22080,20608 20733,17775"/>
<polygon class="poly" points="22080,20608 23552,19968 23552,21632 22968,22248 22302,21840"/>
<polygon class="poly" points="7808,-2048 8576,-768 8704,128 7808,3520"/>
<polygon class="poly" points="9216,-896 10259,-3136 10250,3825 9344,0"/>
<polygon class="poly" points="8704,128 9344,0 10250,3825 8704,4736 7808,3520"/>
<polygon class="poly" points="8864,-4224 10259,-3136 9216,-896 8576,-768 7808,-2048"/>
<polygon class="poly-major-ouch" points="29440,2176 29824,2560 29824,3456 29440,3840"/>
<polygon class="poly-major-ouch" points="26496,2560 26880,2176 26880,3840 26496,3456"/>
<polygon class="poly" points="16960,20608 13888,16192 14400,15552 19200,22016 18304,22272"/>
<polygon class="poly" points="14448,21024 15168,20208 16960,20608 18304,22272"/>
<polygon class="poly" points="12480,18560 13560,17508 14586,18785 15168,20208 14448,21024"/>
<polygon class="poly" points="10880,16064 12416,16768 13560,17508 12480,18560"/>
<polygon class="poly" points="11840,12160 12608,11904 12416,16768 10880,16064"/>
<polygon class="poly" points="11328,10176 11840,9024 12608,11904 11840,12160"/>
<polygon class="poly" points="9920,8640 9920,6400 10944,6528 11840,9024 11328,10176"/>
<polygon class="poly" points="10880,3008 13568,1920 13376,3072 10944,6528 9920,6400"/>
<polygon class="poly" points="13568,1920 17344,1920 16768,2688 13376,3072"/>
<polygon class="poly" points="16768,2688 17344,1920 18496,2624 18816,6592 17344,4288"/>
<polygon class="poly" points="17344,4288 18816,6592 17298,7470 16308,7470 15232,5632"/>
<polygon class="poly" points="22416,5312 22950,4536 25542,9828 24704,10016"/>
<polygon class="poly" points="19278,4158 19332,3348 22950,4536 22416,5312"/>
<polygon class="poly" points="16362,4320 19332,3348 19278,4158 16362,5238"/>
<polygon class="poly" points="11648,2240 12258,1674 16362,4320 16362,5238"/>
<polygon class="poly" points="24448,14464 24448,14208 26496,14720 26368,14976"/>
<polygon class="poly-major-ouch" points="24448,14464 24960,15104 24960,16000 24444,15512"/>
<polygon class="poly" points="24448,14464 26368,14976 24960,15104"/>
<polygon class="poly-major-ouch" points="24444,15512 24960,16000 23936,16896 23424,16512"/>
<polygon class="poly" points="24960,16000 27648,16896 27648,17664 24448,18432 23936,18048 23936,16896"/>
<polygon class="poly-major-ouch" points="23424,16512 23936,16896 23936,18048 23424,18176"/>
<polygon class="poly-major-ouch" points="23424,18176 23936,18048 24448,18432 23808,18688"/>
<polygon class="poly" points="23808,22912 24448,22400 27648,21504 27648,22272 26112,23808 25275,24090 24389,23867"/>
<polygon class="poly" points="23808,22912 24389,23867 23898,24696 23808,23680"/>
<polygon class="poly-major-ouch" points="23898,24696 24389,23867 25275,24090 25984,25216 24920,25228"/>
<polygon class="poly" points="10560,256 11200,-64 12258,1674 11648,2240"/>
<polygon class="poly" points="10560,-3328 11200,-3776 11200,-64 10560,256"/>
<polygon class="poly" points="8960,-4544 9152,-5312 11200,-3776 10560,-3328"/>
<polygon class="poly" points="7104,-5568 9152,-5312 8960,-4544 7301,-4760"/>
<polygon class="poly-platform" points="7260,-4590 7296,-4512 6016,-3712 5960,-3800"/>
<polygon class="poly" points="5952,-4992 7104,-5568 7301,-4760 7260,-4590 5960,-3800 5901,-3955"/>
<polygon class="poly" points="12608,5824 13904,6216 13264,7624 12672,7168"/>
<polygon class="poly" points="12608,5824 12672,7168 12480,7680 11776,7744"/>
<polygon class="poly" points="11776,7744 12480,7680 13760,8576 13056,9152"/>
<polygon class="poly" points="13056,9152 13760,8576 14400,15552 13888,16192"/>
<polygon class="poly" points="23424,13440 24320,13184 25472,13184 27136,13568 26496,14720 24448,14208"/>
<polygon class="poly" points="24256,10688 24704,10016 25542,9828 25792,11072 24448,12416 23712,12096"/>
<polygon class="poly" points="23712,12096 24448,12416 24320,13184 23424,13440"/>
<polygon class="poly" points="24448,18432 27648,17664 27648,19072 27648,19840 27648,21504 24448,22400"/>
<polygon class="poly-major-ouch" points="25275,24090 26112,23808 27136,24704 25984,25216"/>
<polygon class="poly" points="27648,22272 27648,23936 27136,24704 26112,23808"/>
<polygon class="poly" points="24960,15104 26368,14976 27648,14976 27648,16896 24960,16000"/>
<polygon class="poly" points="27648,14976 27904,15232 27904,16640 27648,16896"/>
<polygon class="poly-major-ouch" points="23808,18688 24448,18432 24448,22400 23808,21504 23808,20096"/>
<polygon class="poly-major-ouch" points="23808,21504 24448,22400 23808,22912"/>
<polygon class="poly" points="25984,2816 26496,2560 26496,3456 25984,3200"/>
<polygon class="poly" points="29824,2560 30336,2816 30336,3200 29824,3456"/>
<polygon class="poly" points="-2432,10112 -2688,9472 -1792,9600 -1536,10880"/>
<polygon class="poly" points="-2688,9472 -2688,9216 -1792,9344 -1792,9600"/>
<polygon class="poly" points="60,5148 256,5120 896,7168 640,7120"/>
<polygon class="poly" points="256,5120 384,4096 3072,2432 3392,4480 3072,6272 896,7168"/>
<polygon class="poly" points="-2044,756 1280,768 -512,3200 -2048,2048"/>
<polygon class="poly" points="1280,768 3072,2432 384,4096 -512,3200"/>
<polygon class="poly" points="-640,3328 -512,3200 384,4096 128,4224"/>
<polygon class="poly-platform" points="-2304,768 -2044,756 -2048,2048 -2304,2048"/>
<polygon class="poly" points="-2048,5888 -1792,5632 60,5148 640,7120 -1792,6912 -2048,6656"/>
<polygon class="poly" points="-2176,4736 -1824,3840 -640,3328 128,4224 60,5148 -1792,5632"/>
<polygon class="poly" points="-2816,8448 -2432,7552 -1792,6912 640,7120 -1024,8960 -1792,9344 -2688,9216"/>
<polygon class="poly" points="640,7120 896,7168 -896,9216 -1024,8960"/>
<polygon class="poly" points="896,7168 3072,6272 3072,7808 1152,9728 -896,9216"/>
<polygon class="poly" points="-4480,768 -2304,768 -2304,2048 -3072,2048"/>
<polygon class="poly" points="-6912,896 -4480,768 -3072,2048 -4992,2304"/>
<polygon class="poly" points="-6912,896 -4992,2304 -6528,3712 -8704,2560"/>
<polygon class="poly" points="-8704,2560 -6528,3712 -6784,5888 -9216,4992"/>
<polygon class="poly" points="-6528,3712 -6272,3840 -6528,5888 -6784,5888"/>
<polygon class="poly" points="-4992,2304 -4736,2560 -6272,3840 -6528,3712"/>
<polygon class="poly" points="-9216,4992 -6784,5888 -6784,6912 -9436,6664"/>
<polygon class="poly" points="-9436,6664 -6784,6912 -6656,8832 -8704,9728"/>
<polygon class="poly" points="-8704,9728 -6656,8832 -4224,10112 -5376,11648 -7168,11264"/>
<polygon class="poly" points="-6656,8832 -6400,8704 -4096,9856 -4224,10112"/>
<polygon class="poly" points="-4224,10112 -3712,10496 -4608,11776 -5376,11648"/>
<polygon class="poly" points="-4608,11776 -3584,12032 -2926,12782 -4096,12544"/>
<polygon class="poly" points="-6784,6912 -6528,6912 -6400,8704 -6656,8832"/>
<polygon class="poly" points="-6528,6912 -4480,6912 -3712,7552 -3200,8576 -4096,9856 -6400,8704"/>
<polygon class="poly-platform" points="-3840,5248 -3584,5504 -4096,6016 -4352,5760"/>
<polygon class="poly-platform" points="-4480,6912 -4352,6656 -3584,7296 -3712,7552"/>
<polygon class="poly" points="-6272,3840 -4736,2560 -3456,3328 -3328,4096 -3840,5248 -4352,5760 -6528,5888"/>
<polygon class="poly" points="-4096,6016 -3584,5504 -2688,7168 -3584,7296 -4352,6656"/>
<polygon class="poly" points="-3584,5504 -3200,5376 -2560,5504 -2304,5888 -2304,6656 -2688,7168"/>
<polygon class="poly" points="-2944,4480 -2304,4224 -2560,5504 -3200,5376"/>
<polygon class="poly" points="-3200,3200 -1920,3456 -2304,4224 -2944,4480"/>
<polygon class="poly-platform" points="-3232,2784 -2816,2432 -1785,2429 -1568,3040 -1920,3456 -3200,3200"/>
<polygon class="poly" points="-2816,-1664 -1792,-640 -1785,2429 -2816,2432"/>
<polygon class="poly" points="-1920,-3328 384,-2688 -960,-1400 -1792,-640 -2816,-1664"/>
<polygon class="poly" points="384,-2688 512,-1920 -256,-1280 -960,-1400"/>
<polygon class="poly" points="-3072,-4096 640,-7808 1536,-5888 1152,-3968 384,-2688 -1920,-3328"/>
<polygon class="poly" points="1536,-5888 2048,-5376 1792,-4352 1152,-3968"/>
<polygon class="poly" points="-3712,-7040 -1920,-8448 -256,-8704 640,-7808 -3072,-4096 -3840,-5888"/>
<polygon class="poly" points="-256,-8704 0,-8832 896,-8064 640,-7808"/>
<polygon class="poly" points="-3840,-7936 -2688,-8832 -1920,-8448 -3712,-7040"/>
<polygon class="poly" points="-3840,-5888 -3072,-4096 -3840,-4224 -4352,-5120"/>
<polygon class="poly" points="1536,-11904 1792,-12544 2560,-11392 1152,-10624"/>
<polygon class="poly" points="640,-12288 1536,-11904 1152,-10624"/>
<polygon class="poly" points="640,-12288 256,-13568 384,-14336 1152,-14080 1792,-12544 1536,-11904"/>
<polygon class="poly" points="3840,-9984 4352,-8960 3456,-8960 2816,-9088"/>
<polygon class="poly" points="2816,-9088 3456,-8960 3456,-8192"/>
<polygon class="poly" points="1152,-10624 2560,-11392 3840,-9984 2816,-9088 896,-8064 0,-8832"/>
<polygon class="poly" points="3456,-8192 3456,-8960 4352,-8960 5248,-7552 5376,-6656 4352,-6784"/>
<polygon class="poly" points="2560,-11392 4224,-12672 5888,-13824 6912,-12160 5504,-10880 3840,-9984"/>
<polygon class="poly" points="3840,-14208 4608,-14208 5888,-13824 4224,-12672"/>
<polygon class="poly" points="4736,-15104 5888,-13824 4608,-14208"/>
<polygon class="poly" points="3072,-15616 2944,-16768 3840,-16512 4736,-15104 4608,-14208 3840,-14208"/>
<polygon class="poly" points="6912,-12160 7552,-10752 6912,-10752 5504,-10880"/>
<polygon class="poly" points="6912,-10752 7552,-10752 8576,-9344 8576,-8448 7552,-8832 6656,-10112"/>
<polygon class="poly" points="5504,-10880 6912,-10752 6656,-10112"/>
<polygon class="poly" points="5888,-13824 7424,-14848 7936,-13568 6912,-12160"/>
<polygon class="poly" points="7424,-14848 9216,-15360 9088,-14080 7936,-13568"/>
<polygon class="poly" points="9216,-15360 11136,-14592 10624,-13312 9088,-14080"/>
<polygon class="poly" points="10624,-13312 11136,-14592 12544,-12800 11776,-11776"/>
<polygon class="poly" points="11776,-11776 12544,-12800 13312,-11264 12416,-9216 11904,-10624"/>
<polygon class="poly" points="12416,-9216 13312,-11264 14592,-10368 14976,-6144 13440,-6528 12416,-7808"/>
<polygon class="poly" points="14592,-10368 14976,-10496 17547,-8182 16384,-6912 14976,-6144"/>
<polygon class="poly" points="14976,-10496 16512,-10624 17792,-10240 18280,-8982 17547,-8182"/>
<polygon class="poly" points="14848,-11904 16256,-11904 16512,-10624 14976,-10496"/>
<polygon class="poly" points="15360,-13440 16768,-12928 16256,-11904 14848,-11904"/>
<polygon class="poly" points="17152,-14592 17792,-13184 16768,-12928 15360,-13440"/>
<polygon class="poly" points="17152,-14592 18944,-14592 18688,-12800 17792,-13184"/>
<polygon class="poly" points="18944,-14592 19968,-12416 18816,-11520 18688,-12800"/>
<polygon class="poly" points="18816,-11520 19968,-12416 19200,-9984 18280,-8982 17792,-10240"/>
<polygon class="poly" points="19968,-12416 22272,-11776 20352,-8832 19200,-9984"/>
<polygon class="poly" points="22272,-11776 23040,-12032 23424,-10752 22784,-9472 21760,-8832 20352,-8832"/>
<polygon class="poly" points="23040,-12032 23424,-12160 23808,-10880 23424,-10752"/>
<polygon class="poly" points="22784,-9472 23040,-9088 21888,-8448 21760,-8832"/>
<polygon class="poly" points="17536,-15360 18688,-15360 18944,-14592 17152,-14592"/>
<polygon class="poly" points="16768,-12928 17152,-12416 16896,-11904 16256,-11904"/>
<polygon class="poly" points="14976,-6144 16384,-6912 16384,-6016 15360,-5568"/>
<polygon class="poly" points="11904,-7040 12416,-7808 13440,-6528 12544,-6272"/>
<polygon class="poly" points="-3234,11198 -2574,10912 -2090,11726 -2068,12738 -2926,12782 -3584,12032"/>
<polygon class="poly" points="-3712,10496 -2574,10912 -3234,11198"/>
<polygon class="poly" points="-3712,10496 -3234,11198 -3584,12032 -4608,11776"/>
<polygon class="poly" points="17547,-8182 18280,-8982 18880,-8448 20032,-6272 18816,-5568"/>
<polygon class="poly" points="18816,-5568 20032,-6272 20352,-2560 19072,-2496"/>
<polygon class="poly" points="19072,-2496 20352,-2560 19968,256 18496,192"/>
<polygon class="poly" points="18496,192 19968,256 18739,2232 17600,1536"/>
<polygon class="poly-platform" points="17344,1920 17600,1536 18739,2232 18496,2624"/>
<polygon class="poly" points="-9660,5152 -9216,4992 -9436,6664 -9770,6170"/>
<polygon class="poly" points="13904,6216 14149,6632 13752,7576 13264,7624"/>
</g>
<g class="elevation">
<line x1="6696" y1="12312" x2="5952" y2="12816"/>
<line x1="7584" y1="12736" x2="6696" y2="12312"/>
<line x1="7584" y1="12736" x2="7200" y2="13664"/>
<line x1="7200" y1="13664" x2="6368" y2="13632"/>
<line x1="6368" y1="13632" x2="5952" y2="12816"/>
<line x1="-896" y1="9216" x2="-1792" y2="9600"/>
<line x1="384" y1="4096" x2="256" y2="5120"/>
<line x1="60" y1="5148" x2="128" y2="4224"/>
<line x1="-1792" y1="9344" x2="-1024" y2="8960"/>
<line x1="4448" y1="18624" x2="3980" y2="18098"/>
<line x1="4352" y1="18976" x2="4448" y2="18624"/>
<line x1="4544" y1="19392" x2="4352" y2="18976"/>
<line x1="4544" y1="19392" x2="3982" y2="19847"/>
<line x1="12832" y1="13856" x2="12288" y2="14432"/>
<line x1="12288" y1="14432" x2="12224" y2="15008"/>
<line x1="12448" y1="15488" x2="12224" y2="15008"/>
<line x1="12448" y1="15488" x2="13536" y2="14400"/>
<line x1="13536" y1="14400" x2="13344" y2="13824"/>
<line x1="13344" y1="13824" x2="12832" y2="13856"/>
<line x1="27648" y1="4864" x2="28672" y2="4864"/>
<line x1="27648" y1="19072" x2="27648" y2="17664"/>
<line x1="27904" y1="17920" x2="27904" y2="18816"/>
<line x1="27648" y1="21504" x2="27648" y2="19840"/>
<line x1="27904" y1="20096" x2="27904" y2="21248"/>
<line x1="27648" y1="23936" x2="27648" y2="22272"/>
<line x1="27904" y1="22528" x2="27904" y2="23680"/>
<line x1="23808" y1="20096" x2="23808" y2="21504"/>
<line x1="27904" y1="15232" x2="27904" y2="16640"/>
<line x1="28672" y1="960" x2="27648" y2="960"/>
<line x1="25674" y1="-1485" x2="24651" y2="-1485"/>
<line x1="24684" y1="-3564" x2="25707" y2="-3564"/>
<line x1="25672" y1="-1368" x2="24648" y2="-1368"/>
<line x1="6380" y1="7060" x2="6040" y2="5640"/>
<line x1="7360" y1="11008" x2="7060" y2="9720"/>
<line x1="7360" y1="5640" x2="7060" y2="7060"/>
<line x1="7060" y1="9720" x2="7060" y2="7060"/>
<line x1="6048" y1="11008" x2="6380" y2="9720"/>
<line x1="6380" y1="9720" x2="6380" y2="7060"/>
<line x1="26496" y1="3456" x2="26496" y2="2560"/>
<line x1="29824" y1="2560" x2="29824" y2="3456"/>
<line x1="26368" y1="14976" x2="24448" y2="14464"/>
<line x1="24448" y1="14464" x2="24960" y2="15104"/>
<line x1="24960" y1="15104" x2="24960" y2="16000"/>
<line x1="24960" y1="16000" x2="23936" y2="16896"/>
<line x1="23936" y1="18048" x2="23936" y2="16896"/>
<line x1="24448" y1="18432" x2="23936" y2="18048"/>
<line x1="24448" y1="22400" x2="24448" y2="18432"/>
<line x1="23808" y1="22912" x2="24448" y2="22400"/>
<line x1="24389" y1="23867" x2="23898" y2="24696"/>
<line x1="25275" y1="24090" x2="24389" y2="23867"/>
<line x1="26112" y1="23808" x2="25275" y2="24090"/>
<line x1="13904" y1="6216" x2="13264" y2="7624"/>
<line x1="26112" y1="23808" x2="27136" y2="24704"/>
<line x1="27648" y1="14976" x2="27648" y2="16896"/>
<line x1="640" y1="7120" x2="60" y2="5148"/>
<line x1="256" y1="5120" x2="896" y2="7168"/>
<line x1="-2688" y1="9216" x2="-1792" y2="9344"/>
<line x1="-2688" y1="9472" x2="-1792" y2="9600"/>
<line x1="128" y1="4224" x2="-640" y2="3328"/>
<line x1="384" y1="4096" x2="-512" y2="3200"/>
<line x1="896" y1="7168" x2="-896" y2="9216"/>
<line x1="640" y1="7120" x2="-1024" y2="8960"/>
<line x1="-4992" y1="2304" x2="-6528" y2="3712"/>
<line x1="-6528" y1="3712" x2="-6784" y2="5888"/>
<line x1="-4736" y1="2560" x2="-6272" y2="3840"/>
<line x1="-6272" y1="3840" x2="-6528" y2="5888"/>
<line x1="-6784" y1="6912" x2="-6656" y2="8832"/>
<line x1="-6656" y1="8832" x2="-4224" y2="10112"/>
<line x1="-6400" y1="8704" x2="-4096" y2="9856"/>
<line x1="-3234" y1="11198" x2="-2574" y2="10912"/>
<line x1="-3584" y1="12032" x2="-3234" y2="11198"/>
<line x1="-4608" y1="11776" x2="-3584" y2="12032"/>
<line x1="-3584" y1="12032" x2="-2926" y2="12782"/>
<line x1="-9436" y1="6664" x2="-9216" y2="4992"/>
<line x1="-6528" y1="6912" x2="-6400" y2="8704"/>
<line x1="384" y1="-2688" x2="-960" y2="-1400"/>
<line x1="1536" y1="-5888" x2="1152" y2="-3968"/>
<line x1="-3712" y1="-7040" x2="-1920" y2="-8448"/>
<line x1="-3072" y1="-4096" x2="-3840" y2="-5888"/>
<line x1="640" y1="-12288" x2="1536" y2="-11904"/>
<line x1="1536" y1="-11904" x2="1792" y2="-12544"/>
<line x1="3456" y1="-8960" x2="3456" y2="-8192"/>
<line x1="4352" y1="-8960" x2="3456" y2="-8960"/>
<line x1="4608" y1="-14208" x2="4736" y2="-15104"/>
<line x1="3840" y1="-14208" x2="4608" y2="-14208"/>
<line x1="6656" y1="-10112" x2="6912" y2="-10752"/>
<line x1="7552" y1="-10752" x2="6912" y2="-10752"/>
<line x1="13440" y1="-6528" x2="12416" y2="-7808"/>
<line x1="16384" y1="-6912" x2="14976" y2="-6144"/>
<line x1="17152" y1="-14592" x2="18944" y2="-14592"/>
<line x1="16768" y1="-12928" x2="16256" y2="-11904"/>
<line x1="22784" y1="-9472" x2="21760" y2="-8832"/>
<line x1="23040" y1="-12032" x2="23424" y2="-10752"/>
<line x1="23424" y1="-12160" x2="23808" y2="-10880"/>
<line x1="23040" y1="-9088" x2="21888" y2="-8448"/>
</g>
<g class="wall">
<line x1="7360" y1="11200" x2="6040" y2="11200"/>
<line x1="6040" y1="11200" x2="6048" y2="11008"/>
<line x1="7360" y1="11008" x2="7360" y2="11200"/>
<line x1="6048" y1="11008" x2="7360" y2="11008"/>
<line x1="7360" y1="11200" x2="8083" y2="11923"/>
<line x1="5328" y1="11933" x2="6040" y2="11200"/>
<line x1="8083" y1="11923" x2="8640" y2="11904"/>
<line x1="4704" y1="11928" x2="5328" y2="11933"/>
<line x1="8640" y1="11904" x2="9319" y2="12647"/>
<line x1="4092" y1="12656" x2="4704" y2="11928"/>
<line x1="9319" y1="14183" x2="8957" y2="14544"/>
<line x1="4453" y1="14553" x2="4092" y2="14192"/>
<line x1="5477" y1="14553" x2="4453" y2="14553"/>
<line x1="6180" y1="15120" x2="5477" y2="14553"/>
<line x1="8957" y1="14544" x2="7933" y2="14544"/>
<line x1="7933" y1="14544" x2="7220" y2="15120"/>
<line x1="7220" y1="15120" x2="6180" y2="15120"/>
<line x1="3972" y1="12656" x2="4092" y2="12656"/>
<line x1="1920" y1="11904" x2="2556" y2="12656"/>
<line x1="1920" y1="11264" x2="1920" y2="11904"/>
<line x1="1536" y1="10112" x2="1920" y2="11264"/>
<line x1="3072" y1="7808" x2="1152" y2="9728"/>
<line x1="3072" y1="6272" x2="3072" y2="7808"/>
<line x1="4092" y1="14192" x2="3972" y2="14190"/>
<line x1="2124" y1="14190" x2="384" y2="12416"/>
<line x1="384" y1="12416" x2="384" y2="11648"/>
<line x1="384" y1="11648" x2="384" y2="11264"/>
<line x1="0" y1="10880" x2="-1536" y2="10880"/>
<line x1="-1536" y1="10880" x2="-2432" y2="10112"/>
<line x1="-2432" y1="10112" x2="-2688" y2="9472"/>
<line x1="-512" y1="3200" x2="-2048" y2="2048"/>
<line x1="-2048" y1="2048" x2="-2044" y2="756"/>
<line x1="-2044" y1="756" x2="1280" y2="768"/>
<line x1="1280" y1="768" x2="3072" y2="2432"/>
<line x1="3786" y1="12656" x2="3972" y2="12656"/>
<line x1="3972" y1="14190" x2="3786" y2="14190"/>
<line x1="3972" y1="14190" x2="3972" y2="12656"/>
<line x1="2556" y1="12656" x2="3786" y2="12656"/>
<line x1="3786" y1="14190" x2="2124" y2="14190"/>
<line x1="3786" y1="14190" x2="3786" y2="12656"/>
<line x1="128" y1="11008" x2="0" y2="10880"/>
<line x1="1152" y1="9728" x2="1281" y2="9854"/>
<line x1="128" y1="11008" x2="1281" y2="9854"/>
<line x1="1281" y1="9854" x2="1536" y2="10112"/>
<line x1="384" y1="11264" x2="128" y2="11008"/>
<line x1="1536" y1="10112" x2="384" y2="11264"/>
<line x1="3072" y1="2432" x2="3392" y2="4480"/>
<line x1="-640" y1="3328" x2="-512" y2="3200"/>
<line x1="-2688" y1="9472" x2="-2688" y2="9216"/>
<line x1="-1824" y1="3840" x2="-640" y2="3328"/>
<line x1="-2176" y1="4736" x2="-1824" y2="3840"/>
<line x1="-2048" y1="5888" x2="-2048" y2="6656"/>
<line x1="-2816" y1="8448" x2="-2432" y2="7552"/>
<line x1="-2688" y1="9216" x2="-2816" y2="8448"/>
<line x1="-2304" y1="5888" x2="-2048" y2="5888"/>
<line x1="-2048" y1="6656" x2="-2304" y2="6656"/>
<line x1="-2304" y1="6656" x2="-2304" y2="5888"/>
<line x1="9319" y1="12647" x2="9440" y2="12640"/>
<line x1="9440" y1="14176" x2="9319" y2="14183"/>
<line x1="11429" y1="15269" x2="10343" y2="14183"/>
<line x1="10343" y1="12647" x2="11791" y2="14095"/>
<line x1="11791" y1="14095" x2="12514" y2="13371"/>
<line x1="12514" y1="13371" x2="14050" y2="13371"/>
<line x1="14050" y1="13371" x2="14412" y2="13008"/>
<line x1="14412" y1="13008" x2="15436" y2="13008"/>
<line x1="15436" y1="13008" x2="16522" y2="14094"/>
<line x1="16522" y1="14094" x2="16522" y2="16142"/>
<line x1="16522" y1="16142" x2="15074" y2="17589"/>
<line x1="15074" y1="17589" x2="15074" y2="19125"/>
<line x1="15074" y1="19125" x2="13625" y2="20573"/>
<line x1="10041" y1="20573" x2="9679" y2="20211"/>
<line x1="9679" y1="20211" x2="9167" y2="20211"/>
<line x1="9167" y1="20211" x2="8804" y2="19848"/>
<line x1="8804" y1="19848" x2="6756" y2="19848"/>
<line x1="6756" y1="19848" x2="6393" y2="19485"/>
<line x1="6393" y1="19485" x2="5570" y2="19485"/>
<line x1="5369" y1="19485" x2="5006" y2="19847"/>
<line x1="5006" y1="19847" x2="3982" y2="19847"/>
<line x1="3982" y1="19847" x2="3619" y2="19484"/>
<line x1="3619" y1="19484" x2="3619" y2="18460"/>
<line x1="3619" y1="18460" x2="3980" y2="18098"/>
<line x1="3980" y1="18098" x2="5004" y2="18098"/>
<line x1="5369" y1="18452" x2="5470" y2="18455"/>
<line x1="6901" y1="18459" x2="7262" y2="18820"/>
<line x1="7262" y1="18820" x2="9280" y2="18816"/>
<line x1="9280" y1="18816" x2="9672" y2="19182"/>
<line x1="9672" y1="19182" x2="10184" y2="19182"/>
<line x1="10184" y1="19182" x2="10546" y2="19544"/>
<line x1="13106" y1="19544" x2="13829" y2="18820"/>
<line x1="13829" y1="18820" x2="13829" y2="17284"/>
<line x1="13829" y1="17284" x2="14914" y2="16198"/>
<line x1="14914" y1="16198" x2="14914" y2="15174"/>
<line x1="14914" y1="15174" x2="14552" y2="14812"/>
<line x1="14552" y1="14812" x2="14040" y2="14812"/>
<line x1="14040" y1="14812" x2="12591" y2="16260"/>
<line x1="11429" y1="15781" x2="11429" y2="15269"/>
<line x1="11790" y1="16142" x2="11429" y2="15781"/>
<line x1="12591" y1="16260" x2="11790" y2="16142"/>
<line x1="5470" y1="18455" x2="5568" y2="18432"/>
<line x1="5470" y1="19485" x2="5369" y2="19485"/>
<line x1="5470" y1="18455" x2="5470" y2="19485"/>
<line x1="9440" y1="12640" x2="9632" y2="12640"/>
<line x1="9632" y1="14176" x2="9440" y2="14176"/>
<line x1="9440" y1="12640" x2="9440" y2="14176"/>
<line x1="9632" y1="12640" x2="10343" y2="12647"/>
<line x1="10343" y1="14183" x2="9632" y2="14176"/>
<line x1="9632" y1="12640" x2="9632" y2="14176"/>
<line x1="5004" y1="18098" x2="5369" y2="18452"/>
<line x1="10546" y1="19544" x2="13106" y2="19544"/>
<line x1="13625" y1="20573" x2="10041" y2="20573"/>
<line x1="5568" y1="18432" x2="6901" y2="18459"/>
<line x1="5570" y1="19485" x2="5470" y2="19485"/>
<line x1="5568" y1="18432" x2="5570" y2="19485"/>
<line x1="14412" y1="13008" x2="14408" y2="12888"/>
<line x1="15432" y1="12888" x2="15436" y2="13008"/>
<line x1="14412" y1="10960" x2="13687" y2="10235"/>
<line x1="13687" y1="10235" x2="13687" y2="9211"/>
<line x1="13687" y1="9211" x2="14364" y2="8505"/>
<line x1="14364" y1="8505" x2="16317" y2="8442"/>
<line x1="19593" y1="8505" x2="20424" y2="9292"/>
<line x1="20424" y1="9292" x2="20416" y2="10112"/>
<line x1="14848" y1="9792" x2="15424" y2="10432"/>
<line x1="14848" y1="9472" x2="14848" y2="9792"/>
<line x1="19072" y1="9472" x2="14848" y2="9472"/>
<line x1="19392" y1="9856" x2="19072" y2="9472"/>
<line x1="19392" y1="11776" x2="19392" y2="9856"/>
<line x1="17280" y1="11776" x2="19392" y2="11776"/>
<line x1="16512" y1="12608" x2="17280" y2="11776"/>
<line x1="16546" y1="13716" x2="16512" y2="12608"/>
<line x1="17136" y1="14364" x2="16546" y2="13716"/>
<line x1="17088" y1="19264" x2="17136" y2="14364"/>
<line x1="16317" y1="20160" x2="17088" y2="19264"/>
<line x1="16317" y1="21168" x2="16317" y2="20160"/>
<line x1="17100" y1="21840" x2="16317" y2="21168"/>
<line x1="22302" y1="21840" x2="17100" y2="21840"/>
<line x1="17664" y1="20838" x2="22080" y2="20608"/>
<line x1="17434" y1="20516" x2="17664" y2="20838"/>
<line x1="18354" y1="19642" x2="17434" y2="20516"/>
<line x1="18354" y1="14352" x2="18354" y2="19642"/>
<line x1="19392" y1="13504" x2="18354" y2="14352"/>
<line x1="20160" y1="12864" x2="19392" y2="13504"/>
<line x1="17298" y1="8442" x2="19593" y2="8505"/>
<line x1="16317" y1="8442" x2="16317" y2="8193"/>
<line x1="17298" y1="7470" x2="17298" y2="8193"/>
<line x1="20416" y1="10112" x2="20424" y2="11199"/>
<line x1="28672" y1="13824" x2="28672" y2="14720"/>
<line x1="18240" y1="13120" x2="17856" y2="12672"/>
<line x1="17792" y1="13504" x2="18240" y2="13120"/>
<line x1="17408" y1="13120" x2="17792" y2="13504"/>
<line x1="17856" y1="12672" x2="17408" y2="13120"/>
<line x1="16308" y1="7470" x2="17298" y2="7470"/>
<line x1="28672" y1="13824" x2="27648" y2="13824"/>
<line x1="28672" y1="14720" x2="27648" y2="14720"/>
<line x1="27648" y1="14720" x2="27648" y2="13824"/>
<line x1="28672" y1="4864" x2="28672" y2="13824"/>
<line x1="27648" y1="13824" x2="27648" y2="4864"/>
<line x1="20424" y1="11199" x2="20160" y2="12864"/>
<line x1="14408" y1="12888" x2="14412" y2="10960"/>
<line x1="15424" y1="10432" x2="15432" y2="12888"/>
<line x1="14408" y1="12888" x2="15432" y2="12888"/>
<line x1="27136" y1="24704" x2="25984" y2="25216"/>
<line x1="27648" y1="16896" x2="27648" y2="17664"/>
<line x1="27904" y1="16640" x2="27648" y2="16896"/>
<line x1="27648" y1="17664" x2="27904" y2="17920"/>
<line x1="27904" y1="18816" x2="27648" y2="19072"/>
<line x1="27648" y1="19840" x2="27904" y2="20096"/>
<line x1="27648" y1="21504" x2="27648" y2="22272"/>
<line x1="27904" y1="21248" x2="27648" y2="21504"/>
<line x1="27648" y1="22272" x2="27904" y2="22528"/>
<line x1="27648" y1="23936" x2="27136" y2="24704"/>
<line x1="27904" y1="23680" x2="27648" y2="23936"/>
<line x1="27648" y1="19072" x2="27648" y2="19840"/>
<line x1="23898" y1="24696" x2="23808" y2="23680"/>
<line x1="22968" y1="22248" x2="22302" y2="21840"/>
<line x1="23552" y1="19968" x2="23808" y2="20096"/>
<line x1="23552" y1="21632" x2="22968" y2="22248"/>
<line x1="23808" y1="22912" x2="23808" y2="21504"/>
<line x1="23808" y1="21504" x2="23552" y2="21632"/>
<line x1="26496" y1="14720" x2="26368" y2="14976"/>
<line x1="27648" y1="14720" x2="27520" y2="14720"/>
<line x1="27648" y1="4864" x2="26880" y2="3840"/>
<line x1="26880" y1="2176" x2="27648" y2="960"/>
<line x1="28672" y1="960" x2="29440" y2="2176"/>
<line x1="29440" y1="3840" x2="28672" y2="4864"/>
<line x1="16317" y1="8193" x2="16308" y2="7470"/>
<line x1="17298" y1="8193" x2="17298" y2="8442"/>
<line x1="17298" y1="8193" x2="16317" y2="8193"/>
<line x1="27520" y1="13824" x2="27648" y2="13824"/>
<line x1="27520" y1="14720" x2="26496" y2="14720"/>
<line x1="28677" y1="-2805" x2="28672" y2="960"/>
<line x1="27648" y1="960" x2="27687" y2="-2178"/>
<line x1="27687" y1="-2178" x2="25872" y2="-2178"/>
<line x1="25872" y1="-2805" x2="28677" y2="-2805"/>
<line x1="25707" y1="-3564" x2="25872" y2="-2805"/>
<line x1="24519" y1="-3069" x2="24684" y2="-3564"/>
<line x1="24651" y1="-1485" x2="24519" y2="-2045"/>
<line x1="25872" y1="-2178" x2="25674" y2="-1485"/>
<line x1="24648" y1="-1368" x2="24651" y2="-1485"/>
<line x1="25674" y1="-1485" x2="25672" y2="-1368"/>
<line x1="25704" y1="-3644" x2="25707" y2="-3564"/>
<line x1="24684" y1="-3564" x2="24684" y2="-3644"/>
<line x1="24684" y1="-3644" x2="25704" y2="-3644"/>
<line x1="24440" y1="-3068" x2="24519" y2="-3069"/>
<line x1="24519" y1="-2045" x2="24440" y2="-2041"/>
<line x1="24440" y1="-2041" x2="24440" y2="-3068"/>
<line x1="28480" y1="2400" x2="27840" y2="2400"/>
<line x1="28480" y1="3392" x2="28480" y2="2400"/>
<line x1="27840" y1="3392" x2="28480" y2="3392"/>
<line x1="27840" y1="2400" x2="27840" y2="3392"/>
<line x1="19305" y1="23679" x2="18304" y2="22272"/>
<line x1="19200" y1="22016" x2="19840" y2="22912"/>
<line x1="19840" y1="22912" x2="23296" y2="22912"/>
<line x1="23808" y1="23680" x2="23552" y2="23680"/>
<line x1="23552" y1="22912" x2="23808" y2="22912"/>
<line x1="23552" y1="23680" x2="23296" y2="23680"/>
<line x1="23552" y1="23680" x2="23552" y2="22912"/>
<line x1="23296" y1="22912" x2="23552" y2="22912"/>
<line x1="23296" y1="23680" x2="19305" y2="23679"/>
<line x1="23296" y1="23680" x2="23296" y2="22912"/>
<line x1="7660" y1="10740" x2="7360" y2="11008"/>
<line x1="6048" y1="11008" x2="5740" y2="10740"/>
<line x1="5740" y1="10740" x2="5740" y2="5820"/>
<line x1="5740" y1="5820" x2="6040" y2="5640"/>
<line x1="7360" y1="5640" x2="7660" y2="5780"/>
<line x1="7660" y1="5780" x2="7660" y2="10740"/>
<line x1="7360" y1="5640" x2="6040" y2="5640"/>
<line x1="6040" y1="5640" x2="6040" y2="5460"/>
<line x1="6040" y1="5460" x2="7360" y2="5460"/>
<line x1="7360" y1="5460" x2="7360" y2="5640"/>
<line x1="6040" y1="5460" x2="6016" y2="-3712"/>
<line x1="7360" y1="-2048" x2="7360" y2="5460"/>
<line x1="6016" y1="-3712" x2="7296" y2="-4512"/>
<line x1="7808" y1="-2048" x2="7360" y2="-2048"/>
<line x1="7808" y1="3520" x2="7808" y2="-2048"/>
<line x1="8704" y1="4736" x2="7808" y2="3520"/>
<line x1="7296" y1="-4512" x2="8864" y2="-4224"/>
<line x1="8864" y1="-4224" x2="10259" y2="-3136"/>
<line x1="10259" y1="-3136" x2="10250" y2="3825"/>
<line x1="23808" y1="20096" x2="23808" y2="18688"/>
<line x1="23808" y1="18688" x2="23424" y2="18176"/>
<line x1="23424" y1="18176" x2="23424" y2="16512"/>
<line x1="23424" y1="16512" x2="24444" y2="15512"/>
<line x1="24444" y1="15512" x2="24448" y2="14464"/>
<line x1="25472" y1="13184" x2="27136" y2="13568"/>
<line x1="27136" y1="13568" x2="27520" y2="13824"/>
<line x1="21841" y1="17560" x2="23552" y2="19968"/>
<line x1="21600" y1="15008" x2="21841" y2="17560"/>
<line x1="23392" y1="12992" x2="21600" y2="15008"/>
<line x1="24160" y1="10144" x2="23392" y2="12992"/>
<line x1="22268" y1="5533" x2="24160" y2="10144"/>
<line x1="19370" y1="4513" x2="22268" y2="5533"/>
<line x1="16256" y1="5568" x2="19370" y2="4513"/>
<line x1="12656" y1="3260" x2="16256" y2="5568"/>
<line x1="10250" y1="3825" x2="12656" y2="3260"/>
<line x1="10485" y1="5240" x2="8704" y2="4736"/>
<line x1="12432" y1="4605" x2="10485" y2="5240"/>
<line x1="15808" y1="6848" x2="12432" y2="4605"/>
<line x1="19264" y1="5824" x2="15808" y2="6848"/>
<line x1="21176" y1="6555" x2="19264" y2="5824"/>
<line x1="22058" y1="8402" x2="21176" y2="6555"/>
<line x1="22077" y1="10449" x2="22058" y2="8402"/>
<line x1="22304" y1="12512" x2="22077" y2="10449"/>
<line x1="20992" y1="13504" x2="22304" y2="12512"/>
<line x1="20224" y1="15232" x2="20992" y2="13504"/>
<line x1="20733" y1="17775" x2="20224" y2="15232"/>
<line x1="22080" y1="20608" x2="20733" y2="17775"/>
<line x1="9216" y1="-896" x2="8576" y2="-768"/>
<line x1="8576" y1="-768" x2="8704" y2="128"/>
<line x1="8704" y1="128" x2="9344" y2="0"/>
<line x1="9344" y1="0" x2="9216" y2="-896"/>
<line x1="26496" y1="2560" x2="26880" y2="2176"/>
<line x1="26880" y1="3840" x2="26496" y2="3456"/>
<line x1="29440" y1="2176" x2="29824" y2="2560"/>
<line x1="29824" y1="3456" x2="29440" y2="3840"/>
<line x1="18304" y1="22272" x2="14448" y2="21024"/>
<line x1="14400" y1="15552" x2="19200" y2="22016"/>
<line x1="14448" y1="21024" x2="12480" y2="18560"/>
<line x1="12480" y1="18560" x2="10880" y2="16064"/>
<line x1="10880" y1="16064" x2="11840" y2="12160"/>
<line x1="11840" y1="12160" x2="11328" y2="10176"/>
<line x1="11328" y1="10176" x2="9920" y2="8640"/>
<line x1="9920" y1="8640" x2="9920" y2="6400"/>
<line x1="9920" y1="6400" x2="10880" y2="3008"/>
<line x1="10880" y1="3008" x2="13568" y2="1920"/>
<line x1="13568" y1="1920" x2="17344" y2="1920"/>
<line x1="17344" y1="1920" x2="18496" y2="2624"/>
<line x1="18496" y1="2624" x2="18816" y2="6592"/>
<line x1="18816" y1="6592" x2="17298" y2="7470"/>
<line x1="12416" y1="16768" x2="13560" y2="17508"/>
<line x1="12608" y1="11904" x2="12416" y2="16768"/>
<line x1="11840" y1="9024" x2="12608" y2="11904"/>
<line x1="10944" y1="6528" x2="11840" y2="9024"/>
<line x1="13376" y1="3072" x2="10944" y2="6528"/>
<line x1="16768" y1="2688" x2="13376" y2="3072"/>
<line x1="17344" y1="4288" x2="16768" y2="2688"/>
<line x1="15232" y1="5632" x2="17344" y2="4288"/>
<line x1="16308" y1="7470" x2="15232" y2="5632"/>
<line x1="16960" y1="20608" x2="13888" y2="16192"/>
<line x1="15168" y1="20208" x2="16960" y2="20608"/>
<line x1="14586" y1="18785" x2="15168" y2="20208"/>
<line x1="13560" y1="17508" x2="14586" y2="18785"/>
<line x1="24448" y1="14208" x2="23424" y2="13440"/>
<line x1="24704" y1="10016" x2="22416" y2="5312"/>
<line x1="22416" y1="5312" x2="19278" y2="4158"/>
<line x1="19278" y1="4158" x2="16362" y2="5238"/>
<line x1="16362" y1="5238" x2="11648" y2="2240"/>
<line x1="24320" y1="13184" x2="25472" y2="13184"/>
<line x1="22950" y1="4536" x2="25542" y2="9828"/>
<line x1="19332" y1="3348" x2="22950" y2="4536"/>
<line x1="16362" y1="4320" x2="19332" y2="3348"/>
<line x1="12258" y1="1674" x2="16362" y2="4320"/>
<line x1="24448" y1="14464" x2="24448" y2="14208"/>
<line x1="24920" y1="25228" x2="23898" y2="24696"/>
<line x1="25984" y1="25216" x2="24920" y2="25228"/>
<line x1="11648" y1="2240" x2="10560" y2="256"/>
<line x1="10560" y1="256" x2="10560" y2="-3328"/>
<line x1="10560" y1="-3328" x2="8960" y2="-4544"/>
<line x1="8960" y1="-4544" x2="7301" y2="-4760"/>
<line x1="11200" y1="-64" x2="12258" y2="1674"/>
<line x1="11200" y1="-3776" x2="11200" y2="-64"/>
<line x1="9152" y1="-5312" x2="11200" y2="-3776"/>
<line x1="7104" y1="-5568" x2="9152" y2="-5312"/>
<line x1="5952" y1="-4992" x2="7104" y2="-5568"/>
<line x1="6016" y1="-3712" x2="5960" y2="-3800"/>
<line x1="5960" y1="-3800" x2="5901" y2="-3955"/>
<line x1="5960" y1="-3800" x2="7260" y2="-4590"/>
<line x1="7260" y1="-4590" x2="7296" y2="-4512"/>
<line x1="7301" y1="-4760" x2="7260" y2="-4590"/>
<line x1="5901" y1="-3955" x2="5952" y2="-4992"/>
<line x1="13888" y1="16192" x2="13056" y2="9152"/>
<line x1="13760" y1="8576" x2="14400" y2="15552"/>
<line x1="12480" y1="7680" x2="13760" y2="8576"/>
<line x1="13056" y1="9152" x2="11776" y2="7744"/>
<line x1="12672" y1="7168" x2="12480" y2="7680"/>
<line x1="11776" y1="7744" x2="12608" y2="5824"/>
<line x1="12608" y1="5824" x2="13904" y2="6216"/>
<line x1="13264" y1="7624" x2="12672" y2="7168"/>
<line x1="23424" y1="13440" x2="23712" y2="12096"/>
<line x1="23712" y1="12096" x2="24256" y2="10688"/>
<line x1="24256" y1="10688" x2="24704" y2="10016"/>
<line x1="25542" y1="9828" x2="25792" y2="11072"/>
<line x1="25792" y1="11072" x2="24448" y2="12416"/>
<line x1="24448" y1="12416" x2="24320" y2="13184"/>
<line x1="27648" y1="14976" x2="27904" y2="15232"/>
<line x1="26368" y1="14976" x2="27648" y2="14976"/>
<line x1="29824" y1="2560" x2="30336" y2="2816"/>
<line x1="30336" y1="2816" x2="30336" y2="3200"/>
<line x1="30336" y1="3200" x2="29824" y2="3456"/>
<line x1="25984" y1="2816" x2="26496" y2="2560"/>
<line x1="25984" y1="3200" x2="25984" y2="2816"/>
<line x1="26496" y1="3456" x2="25984" y2="3200"/>
<line x1="3392" y1="4480" x2="3072" y2="6272"/>
<line x1="-2304" y1="768" x2="-2044" y2="756"/>
<line x1="-2304" y1="2048" x2="-2304" y2="768"/>
<line x1="-2048" y1="2048" x2="-2304" y2="2048"/>
<line x1="-4480" y1="768" x2="-2304" y2="768"/>
<line x1="-2304" y1="2048" x2="-3072" y2="2048"/>
<line x1="-6912" y1="896" x2="-4480" y2="768"/>
<line x1="-8704" y1="2560" x2="-6912" y2="896"/>
<line x1="-9216" y1="4992" x2="-8704" y2="2560"/>
<line x1="-8704" y1="9728" x2="-9436" y2="6664"/>
<line x1="-7168" y1="11264" x2="-8704" y2="9728"/>
<line x1="-5376" y1="11648" x2="-7168" y2="11264"/>
<line x1="-3072" y1="2048" x2="-4992" y2="2304"/>
<line x1="-4352" y1="5760" x2="-3840" y2="5248"/>
<line x1="-6784" y1="5888" x2="-6784" y2="6912"/>
<line x1="-3712" y1="7552" x2="-3200" y2="8576"/>
<line x1="-3200" y1="8576" x2="-4096" y2="9856"/>
<line x1="-1792" y1="6912" x2="-2048" y2="6656"/>
<line x1="-2432" y1="7552" x2="-1792" y2="6912"/>
<line x1="-2048" y1="5888" x2="-1792" y2="5632"/>
<line x1="-1792" y1="5632" x2="-2176" y2="4736"/>
<line x1="-4992" y1="2304" x2="-4736" y2="2560"/>
<line x1="-6528" y1="5888" x2="-6784" y2="5888"/>
<line x1="-4096" y1="9856" x2="-4224" y2="10112"/>
<line x1="-4480" y1="6912" x2="-3712" y2="7552"/>
<line x1="-4352" y1="5760" x2="-6528" y2="5888"/>
<line x1="-4224" y1="10112" x2="-3712" y2="10496"/>
<line x1="-3712" y1="10496" x2="-2574" y2="10912"/>
<line x1="-4608" y1="11776" x2="-5376" y2="11648"/>
<line x1="-4096" y1="12544" x2="-4608" y2="11776"/>
<line x1="-2926" y1="12782" x2="-4096" y2="12544"/>
<line x1="-2068" y1="12738" x2="-2926" y2="12782"/>
<line x1="-2090" y1="11726" x2="-2068" y2="12738"/>
<line x1="-2574" y1="10912" x2="-2090" y2="11726"/>
<line x1="-6784" y1="6912" x2="-6528" y2="6912"/>
<line x1="-6528" y1="6912" x2="-4480" y2="6912"/>
<line x1="-4480" y1="6912" x2="-4352" y2="6656"/>
<line x1="-4352" y1="6656" x2="-3584" y2="7296"/>
<line x1="-3584" y1="7296" x2="-3712" y2="7552"/>
<line x1="-4096" y1="6016" x2="-4352" y2="5760"/>
<line x1="-3584" y1="5504" x2="-4096" y2="6016"/>
<line x1="-3840" y1="5248" x2="-3584" y2="5504"/>
<line x1="-4352" y1="6656" x2="-4096" y2="6016"/>
<line x1="-2304" y1="6656" x2="-2688" y2="7168"/>
<line x1="-2688" y1="7168" x2="-3584" y2="7296"/>
<line x1="-4736" y1="2560" x2="-3456" y2="3328"/>
<line x1="-3456" y1="3328" x2="-3328" y2="4096"/>
<line x1="-3328" y1="4096" x2="-3840" y2="5248"/>
<line x1="-3584" y1="5504" x2="-3200" y2="5376"/>
<line x1="-2560" y1="5504" x2="-2304" y2="5888"/>
<line x1="-3200" y1="5376" x2="-2944" y2="4480"/>
<line x1="-2304" y1="4224" x2="-2560" y2="5504"/>
<line x1="-2944" y1="4480" x2="-3200" y2="3200"/>
<line x1="-1920" y1="3456" x2="-2304" y2="4224"/>
<line x1="-1568" y1="3040" x2="-1920" y2="3456"/>
<line x1="-1785" y1="2429" x2="-1568" y2="3040"/>
<line x1="-2816" y1="2432" x2="-1785" y2="2429"/>
<line x1="-3232" y1="2784" x2="-2816" y2="2432"/>
<line x1="-3200" y1="3200" x2="-3232" y2="2784"/>
<line x1="-3200" y1="3200" x2="-1920" y2="3456"/>
<line x1="-2816" y1="2432" x2="-2816" y2="-1664"/>
<line x1="-1792" y1="-640" x2="-1785" y2="2429"/>
<line x1="-2816" y1="-1664" x2="-1920" y2="-3328"/>
<line x1="-960" y1="-1400" x2="-1792" y2="-640"/>
<line x1="-256" y1="-1280" x2="-960" y2="-1400"/>
<line x1="512" y1="-1920" x2="-256" y2="-1280"/>
<line x1="384" y1="-2688" x2="512" y2="-1920"/>
<line x1="1152" y1="-3968" x2="384" y2="-2688"/>
<line x1="1792" y1="-4352" x2="1152" y2="-3968"/>
<line x1="2048" y1="-5376" x2="1792" y2="-4352"/>
<line x1="1536" y1="-5888" x2="2048" y2="-5376"/>
<line x1="640" y1="-7808" x2="1536" y2="-5888"/>
<line x1="896" y1="-8064" x2="640" y2="-7808"/>
<line x1="-256" y1="-8704" x2="0" y2="-8832"/>
<line x1="-1920" y1="-8448" x2="-256" y2="-8704"/>
<line x1="-2688" y1="-8832" x2="-1920" y2="-8448"/>
<line x1="-3840" y1="-7936" x2="-2688" y2="-8832"/>
<line x1="-3712" y1="-7040" x2="-3840" y2="-7936"/>
<line x1="-3840" y1="-5888" x2="-3712" y2="-7040"/>
<line x1="-4352" y1="-5120" x2="-3840" y2="-5888"/>
<line x1="-3840" y1="-4224" x2="-4352" y2="-5120"/>
<line x1="-3072" y1="-4096" x2="-3840" y2="-4224"/>
<line x1="-1920" y1="-3328" x2="-3072" y2="-4096"/>
<line x1="0" y1="-8832" x2="1152" y2="-10624"/>
<line x1="2816" y1="-9088" x2="896" y2="-8064"/>
<line x1="1152" y1="-10624" x2="640" y2="-12288"/>
<line x1="1152" y1="-14080" x2="1792" y2="-12544"/>
<line x1="384" y1="-14336" x2="1152" y2="-14080"/>
<line x1="256" y1="-13568" x2="384" y2="-14336"/>
<line x1="640" y1="-12288" x2="256" y2="-13568"/>
<line x1="3456" y1="-8192" x2="2816" y2="-9088"/>
<line x1="4352" y1="-8960" x2="5248" y2="-7552"/>
<line x1="5248" y1="-7552" x2="5376" y2="-6656"/>
<line x1="5376" y1="-6656" x2="4352" y2="-6784"/>
<line x1="4352" y1="-6784" x2="3456" y2="-8192"/>
<line x1="3840" y1="-9984" x2="4352" y2="-8960"/>
<line x1="1792" y1="-12544" x2="2560" y2="-11392"/>
<line x1="2560" y1="-11392" x2="4224" y2="-12672"/>
<line x1="5504" y1="-10880" x2="3840" y2="-9984"/>
<line x1="4224" y1="-12672" x2="3840" y2="-14208"/>
<line x1="4736" y1="-15104" x2="5888" y2="-13824"/>
<line x1="3840" y1="-16512" x2="4736" y2="-15104"/>
<line x1="2944" y1="-16768" x2="3840" y2="-16512"/>
<line x1="3072" y1="-15616" x2="2944" y2="-16768"/>
<line x1="3840" y1="-14208" x2="3072" y2="-15616"/>
<line x1="6656" y1="-10112" x2="5504" y2="-10880"/>
<line x1="6912" y1="-12160" x2="7552" y2="-10752"/>
<line x1="7552" y1="-8832" x2="6656" y2="-10112"/>
<line x1="8576" y1="-8448" x2="7552" y2="-8832"/>
<line x1="8576" y1="-9344" x2="8576" y2="-8448"/>
<line x1="7552" y1="-10752" x2="8576" y2="-9344"/>
<line x1="5888" y1="-13824" x2="7424" y2="-14848"/>
<line x1="7936" y1="-13568" x2="6912" y2="-12160"/>
<line x1="7424" y1="-14848" x2="9216" y2="-15360"/>
<line x1="9088" y1="-14080" x2="7936" y2="-13568"/>
<line x1="9216" y1="-15360" x2="11136" y2="-14592"/>
<line x1="10624" y1="-13312" x2="9088" y2="-14080"/>
<line x1="11136" y1="-14592" x2="12544" y2="-12800"/>
<line x1="11776" y1="-11776" x2="10624" y2="-13312"/>
<line x1="12544" y1="-12800" x2="13312" y2="-11264"/>
<line x1="11904" y1="-10624" x2="11776" y2="-11776"/>
<line x1="12416" y1="-9216" x2="11904" y2="-10624"/>
<line x1="13312" y1="-11264" x2="14592" y2="-10368"/>
<line x1="12416" y1="-7808" x2="12416" y2="-9216"/>
<line x1="14976" y1="-6144" x2="13440" y2="-6528"/>
<line x1="17547" y1="-8182" x2="16384" y2="-6912"/>
<line x1="18944" y1="-14592" x2="19968" y2="-12416"/>
<line x1="15360" y1="-13440" x2="17152" y2="-14592"/>
<line x1="14848" y1="-11904" x2="15360" y2="-13440"/>
<line x1="14976" y1="-10496" x2="14848" y2="-11904"/>
<line x1="14592" y1="-10368" x2="14976" y2="-10496"/>
<line x1="17792" y1="-13184" x2="16768" y2="-12928"/>
<line x1="16256" y1="-11904" x2="16512" y2="-10624"/>
<line x1="16512" y1="-10624" x2="17792" y2="-10240"/>
<line x1="17792" y1="-10240" x2="18816" y2="-11520"/>
<line x1="18816" y1="-11520" x2="18688" y2="-12800"/>
<line x1="18688" y1="-12800" x2="17792" y2="-13184"/>
<line x1="19968" y1="-12416" x2="22272" y2="-11776"/>
<line x1="20352" y1="-8832" x2="19200" y2="-9984"/>
<line x1="21760" y1="-8832" x2="20352" y2="-8832"/>
<line x1="23424" y1="-10752" x2="22784" y2="-9472"/>
<line x1="22272" y1="-11776" x2="23040" y2="-12032"/>
<line x1="23808" y1="-10880" x2="23424" y2="-10752"/>
<line x1="23040" y1="-12032" x2="23424" y2="-12160"/>
<line x1="22784" y1="-9472" x2="23040" y2="-9088"/>
<line x1="21888" y1="-8448" x2="21760" y2="-8832"/>
<line x1="19200" y1="-9984" x2="18280" y2="-8982"/>
<line x1="16768" y1="-12928" x2="17152" y2="-12416"/>
<line x1="17152" y1="-12416" x2="16896" y2="-11904"/>
<line x1="16896" y1="-11904" x2="16256" y2="-11904"/>
<line x1="16384" y1="-6912" x2="16384" y2="-6016"/>
<line x1="16384" y1="-6016" x2="15360" y2="-5568"/>
<line x1="15360" y1="-5568" x2="14976" y2="-6144"/>
<line x1="13440" y1="-6528" x2="12544" y2="-6272"/>
<line x1="12544" y1="-6272" x2="11904" y2="-7040"/>
<line x1="11904" y1="-7040" x2="12416" y2="-7808"/>
<line x1="17152" y1="-14592" x2="17536" y2="-15360"/>
<line x1="17536" y1="-15360" x2="18688" y2="-15360"/>
<line x1="18688" y1="-15360" x2="18944" y2="-14592"/>
<line x1="18816" y1="-5568" x2="17547" y2="-8182"/>
<line x1="19072" y1="-2496" x2="18816" y2="-5568"/>
<line x1="18496" y1="192" x2="19072" y2="-2496"/>
<line x1="17344" y1="1920" x2="17600" y2="1536"/>
<line x1="19968" y1="256" x2="18739" y2="2232"/>
<line x1="20352" y1="-2560" x2="19968" y2="256"/>
<line x1="20032" y1="-6272" x2="20352" y2="-2560"/>
<line x1="18880" y1="-8448" x2="20032" y2="-6272"/>
<line x1="18280" y1="-8982" x2="18880" y2="-8448"/>
<line x1="17600" y1="1536" x2="18496" y2="192"/>
<line x1="18739" y1="2232" x2="18496" y2="2624"/>
<line x1="18739" y1="2232" x2="17600" y2="1536"/>
<line x1="-9770" y1="6170" x2="-9660" y2="5152"/>
<line x1="-9660" y1="5152" x2="-9216" y2="4992"/>
<line x1="-9436" y1="6664" x2="-9770" y2="6170"/>
<line x1="14149" y1="6632" x2="13752" y2="7576"/>
<line x1="13752" y1="7576" x2="13264" y2="7624"/>
<line x1="13904" y1="6216" x2="14149" y2="6632"/>
</g>
</svg>