<?xml-stylesheet type="text/css" href="map.css"?>
<svg xmlns="http://www.w3.org/2000/svg" viewBox="-31371 -34955 55573 67861">
<g class="floors">
<polygon class="poly-minor-ouch" points="5859,7332 8756,4436 9780,4436 12676,7332 12676,8356 9778,11251 8754,11251 5859,8356"/>
<polygon class="poly-minor-ouch" points="13400,9080 14424,9080 15840,10528 15871,11551 12979,14451 11955,14451 10501,12998 10501,11974"/>
<polygon class="poly" points="8754,11251 9778,11251 10501,11974 10501,12998 9777,13721 8753,13721 8028,12996 8031,11975"/>
<polygon class="poly" points="5135,9079 5859,8356 8754,11251 8031,11975"/>
<polygon class="poly" points="3386,7330 4109,6606 5135,6608 5859,7332 5859,8356 5135,9079 4111,9079 3386,8354"/>
<polygon class="poly" points="5135,6608 8032,3712 8756,4436 5859,7332"/>
<polygon class="poly" points="8032,3712 8032,2656 8754,1963 9778,1963 10503,2688 10503,3712 9780,4436 8756,4436"/>
<polygon class="poly" points="9780,4436 10503,3712 13399,6608 12676,7332"/>
<polygon class="poly" points="12676,7332 13399,6608 14422,6607 15147,7332 15147,8356 14424,9080 13400,9080 12676,8356"/>
<polygon class="poly" points="12676,8356 13400,9080 10501,11974 9778,11251"/>
<polygon class="poly" points="14424,9080 15147,8356 16595,9804 15840,10528"/>
<polygon class="poly" points="15840,10528 16595,9804 17619,9804 18343,10528 18343,11552 17619,12275 16595,12275 15871,11551"/>
<polygon class="poly" points="15871,11551 16595,12275 13703,15175 12979,14451"/>
<polygon class="poly" points="11200,15168 11955,14451 12979,14451 13703,15175 13703,16199 12978,16923 11954,16923 11230,16199"/>
<polygon class="poly" points="9777,13721 10501,12998 11955,14451 11200,15168"/>
<polygon class="poly" points="-828,7326 3386,7330 3386,8354 -828,8352"/>
<polygon class="poly" points="-1852,7326 -828,7326 -828,8352 -1852,8352"/>
<polygon class="poly" points="-7168,8192 -5632,5632 -3584,5632 -1852,7326 -1852,8352 -3072,11264 -7168,10240"/>
<polygon class="poly" points="-6144,12288 -7168,10240 -3072,11264 -3072,12288 -4096,13312 -5120,13312"/>
<polygon class="poly" points="-5632,14848 -5120,14336 -4096,14336 -2048,14336 -1024,15360 -5120,15872 -5632,15360"/>
<polygon class="poly" points="-5120,15872 -1024,15360 -1024,16440 -5120,17408"/>
<polygon class="poly" points="-5632,17920 -5120,17408 -1024,16440 -1024,18432 -5120,18944 -5632,18432"/>
<polygon class="poly" points="-1024,18432 -2048,19456 -5120,19456 -5120,18944"/>
<polygon class="poly" points="-6144,17920 -5632,17920 -5632,18432 -6144,18432"/>
<polygon class="poly-minor-ouch" points="-6144,15360 -5632,15360 -5120,15872 -5120,17408 -5632,17920 -6144,17920"/>
<polygon class="poly-minor-ouch" points="-11264,14336 -11264,13824 -6656,11776 -6144,13824 -6144,14848 -11264,14848"/>
<polygon class="poly-minor-ouch" points="-11264,15360 -11264,14848 -6144,14848 -6144,15360 -6144,17920 -11264,17920"/>
<polygon class="poly-minor-ouch" points="-11264,18944 -11264,18432 -11264,17920 -6144,17920 -6144,18432 -6656,19968 -10752,19968"/>
<polygon class="poly" points="2560,16384 4096,14848 4908,15667 4096,19968 2560,18432"/>
<polygon class="poly" points="4908,15667 6886,17646 6886,19093 6144,19968 5120,19968 4096,19968"/>
<polygon class="poly" points="6886,17646 8334,19094 7936,20096 6886,19093"/>
<polygon class="poly" points="8334,19094 11230,16199 11954,16923 8333,20543 7936,20096"/>
<polygon class="poly-minor-ouch" points="5120,19968 6144,19968 6144,21504 5120,24576"/>
<polygon class="poly" points="4096,19968 5120,19968 5120,24576 4096,22528"/>
<polygon class="poly" points="-6144,14848 -5632,14848 -5632,15360 -6144,15360"/>
<polygon class="poly" points="-11776,14848 -11264,14848 -11264,15360 -11776,15360"/>
<polygon class="poly" points="-11776,17920 -11264,17920 -11264,18432 -11776,18432"/>
<polygon class="poly" points="-13824,19456 -12800,19456 -12800,24576 -13824,25600"/>
<polygon class="poly" points="-14336,13824 -12288,13824 -12288,14336 -15360,14848"/>
<polygon class="poly" points="-15360,14848 -12288,14336 -11776,14848 -11776,15360 -12288,15872 -15360,16384"/>
<polygon class="poly" points="-15360,18432 -12288,18944 -12800,19456 -13824,19456 -14336,19456"/>
<polygon class="poly" points="-15872,16384 -15360,16384 -15360,16896 -15872,16896"/>
<polygon class="poly" points="-15360,16384 -12288,15872 -12288,17408 -15360,16896"/>
<polygon class="poly" points="-15360,16896 -12288,17408 -11776,17920 -11776,18432 -12288,18944 -15360,18432"/>
<polygon class="poly-minor-ouch" points="-12288,15872 -11776,15360 -11264,15360 -11264,17920 -11776,17920 -12288,17408"/>
<polygon class="poly" points="8754,-1109 9778,-2133 9778,1963 8754,1963"/>
<polygon class="poly" points="7984,-2123 9778,-2133 8754,-1109 7984,-1100"/>
<polygon class="poly" points="7282,-2123 7984,-2123 7984,-1100 7282,-1100"/>
<polygon class="poly" points="6633,-2123 7282,-2123 7282,-1100 6633,-1100"/>
<polygon class="poly" points="5975,-2133 6633,-2123 6633,-1100 5973,-1100"/>
<polygon class="poly" points="5214,-2123 5975,-2133 5973,-1100 5214,-1100"/>
<polygon class="poly-platform" points="4906,-2123 5214,-2123 5214,-1100 4906,-1100"/>
<polygon class="poly" points="4658,-2133 4906,-2123 4906,-1100 4658,-1109"/>
<polygon class="poly" points="3634,-2115 4658,-2133 4658,-1109 3674,687 2590,-353"/>
<polygon class="poly" points="2590,-353 3674,687 1016,2227 800,642"/>
<polygon class="poly" points="-2048,832 800,642 1016,2227 -2048,2560 -2048,1536"/>
<polygon class="poly" points="-4096,1536 -2048,1536 -2048,2560 -3072,2560"/>
<polygon class="poly" points="2517,-5396 4110,-4107 4658,-2133 3634,-2115"/>
<polygon class="poly-minor-ouch" points="-3374,-5216 -1507,-6059 -483,-6059 2517,-5396 3634,-2115 2590,-353 800,642 -2048,832"/>
<polygon class="poly-minor-ouch" points="-5120,-5632 -3374,-5216 -2048,832 -4608,-512"/>
<polygon class="poly-minor-ouch" points="-1507,-6592 -483,-6592 -483,-6059 -1507,-6059"/>
<polygon class="poly-minor-ouch" points="-1491,-7539 -483,-6592 -1507,-6592"/>
<polygon class="poly-minor-ouch" points="-1491,-7539 -483,-7539 -483,-6592"/>
<polygon class="poly-minor-ouch" points="-1507,-8107 -483,-8107 -483,-7539 -1491,-7539"/>
<polygon class="poly" points="-483,-7539 2560,-7488 2589,-6592 -483,-6592"/>
<polygon class="poly" points="-4578,-7539 -1491,-7539 -1507,-6592 -4579,-6592"/>
<polygon class="poly" points="-10773,-7539 -4578,-7539 -4579,-6592 -9786,-6573"/>
<polygon class="poly-minor-ouch" points="-4305,-10923 -3072,-12800 1240,-9214 -483,-8107 -1507,-8107 -3456,-8960"/>
<polygon class="poly-minor-ouch" points="-3072,-12800 -1024,-13312 947,-12787 2080,-11081 1240,-9214"/>
<polygon class="poly-minor-ouch" points="947,-12787 2200,-13720 3400,-12040 2080,-11081"/>
<polygon class="poly-platform" points="-4662,-10731 -4305,-10923 -3456,-8960 -3759,-8778"/>
<polygon class="poly" points="-5586,-10353 -4662,-10731 -3759,-8778 -4809,-8295 -5904,-8820 -6111,-9345"/>
<polygon class="poly" points="-11776,-7168 -10773,-7539 -9786,-6573 -10240,-6144"/>
<polygon class="poly" points="-14336,-6144 -11776,-7168 -10240,-6144 -12800,-5120"/>
<polygon class="poly" points="-14336,-6144 -12800,-5120 -12800,-2048 -12800,-1536 -14336,-1024"/>
<polygon class="poly" points="-14336,-1024 -12800,-1536 -13312,1024 -14336,-512"/>
<polygon class="poly" points="-13312,1024 -16384,1024 -16384,-512 -14336,-512"/>
<polygon class="poly" points="-12800,-2048 -12288,-2048 -12288,-1536 -12800,-1536"/>
<polygon class="poly" points="-26624,1536 -25600,1536 -25600,2048 -26624,2048"/>
<polygon class="poly" points="-28672,4096 -26624,2048 -25600,2048 -23552,4096 -23552,6144 -25600,8192 -26624,8192 -28672,6144"/>
<polygon class="poly" points="-26624,8192 -25600,8192 -25600,11264 -26624,12288"/>
<polygon class="poly" points="-25600,11264 -22528,11264 -23552,12288 -26624,12288"/>
<polygon class="poly" points="-23552,12288 -22528,11264 -20480,10240 -17408,11264 -16384,15360 -19456,15872 -22528,14336"/>
<polygon class="poly-minor-ouch" points="-9216,-10240 -8192,-10240 -7380,-8676 -11264,-8192"/>
<polygon class="poly" points="-13312,-17408 -12288,-17408 -12288,-16384 -13312,-16384"/>
<polygon class="poly" points="-13312,-18432 -11776,-19456 -12288,-17408 -13312,-17408"/>
<polygon class="poly" points="-16384,-22528 -15360,-23552 -13312,-22528 -14848,-21504"/>
<polygon class="poly" points="-18432,-23552 -18432,-24576 -16384,-25600 -14848,-25600 -15360,-23552 -16384,-22528"/>
<polygon class="poly" points="-2048,-14848 -1024,-13312 -3072,-12800 -3456,-13176"/>
<polygon class="poly" points="-22528,-24576 -20992,-23552 -20992,-19968 -22528,-21504"/>
<polygon class="poly" points="-24064,-21504 -23040,-21504 -22528,-21504 -20992,-19968 -23552,-19968"/>
<polygon class="poly" points="-23808,-25600 -23296,-25600 -23040,-21504 -24064,-21504"/>
<polygon class="poly" points="-25088,-21504 -24064,-21504 -23552,-19968 -25600,-19968 -25600,-20992"/>
<polygon class="poly" points="-25856,-25600 -25344,-25600 -25088,-21504 -25600,-20992 -26112,-21504"/>
<polygon class="poly" points="-27648,-21504 -26112,-21504 -25600,-20992 -25600,-19968 -26112,-19456 -27648,-19456"/>
<polygon class="poly" points="-27648,-19456 -26112,-19456 -26112,-17920 -27648,-16896 -27648,-17408"/>
<polygon class="poly" points="-26112,-17920 -20480,-17920 -20480,-16896 -27136,-16896 -27648,-16896"/>
<polygon class="poly-platform" points="14679,6321 15414,7035 15147,7332 14422,6607"/>
<polygon class="poly-platform" points="18343,11552 18480,11682 17754,12408 17619,12275"/>
<polygon class="poly" points="17754,12408 18480,11682 19217,12408 18491,13134"/>
<polygon class="poly" points="-16832,-16352 -13312,-16384 -12288,-16384 -10240,-16384 -9216,-15360 -9216,-10240 -14880,-13344"/>
<polygon class="poly" points="-17088,-13056 -16192,-12160 -19463,-8261 -20540,-8728"/>
<polygon class="poly-minor-ouch" points="-18240,-14528 -17088,-13056 -20540,-8728 -21504,-9216"/>
<polygon class="poly-minor-ouch" points="-21504,-9216 -20540,-8728 -23040,-5568 -25088,-5632"/>
<polygon class="poly" points="-20540,-8728 -19463,-8261 -22144,-4864 -23040,-5568"/>
<polygon class="poly-minor-ouch" points="-19463,-8261 -17920,-5632 -19968,-4096 -22144,-4864"/>
<polygon class="poly-minor-ouch" points="-25088,-5632 -23040,-5568 -24704,-1216 -26112,-1024"/>
<polygon class="poly" points="-23040,-5568 -22144,-4864 -23488,-1024 -24704,-1216"/>
<polygon class="poly-minor-ouch" points="-22144,-4864 -19968,-4096 -20992,-1024 -23488,-1024"/>
<polygon class="poly-minor-ouch" points="-26112,-1024 -24704,-1216 -22272,2752 -23040,4096"/>
<polygon class="poly" points="-24704,-1216 -23488,-1024 -21568,2368 -22272,2752"/>
<polygon class="poly-minor-ouch" points="-23488,-1024 -20992,-1024 -19968,1536 -21568,2368"/>
<polygon class="poly-minor-ouch" points="-22272,2752 -17600,5440 -18944,6656 -21504,6144 -23040,4096"/>
<polygon class="poly" points="-22272,2752 -21568,2368 -17088,4864 -17600,5440"/>
<polygon class="poly-minor-ouch" points="-21568,2368 -19968,1536 -15872,3072 -17088,4864"/>
<polygon class="poly-minor-ouch" points="-18944,6656 -17600,5440 -16128,8000 -17408,8192"/>
<polygon class="poly-minor-ouch" points="-17088,4864 -15872,3072 -13824,7680 -15232,7872"/>
<polygon class="poly" points="-17600,5440 -17088,4864 -15232,7872 -16128,8000"/>
<polygon class="poly-minor-ouch" points="-15232,7872 -13824,7680 -17408,11264 -17088,9920"/>
<polygon class="poly" points="-16128,8000 -15232,7872 -17088,9920 -17536,9472"/>
<polygon class="poly-minor-ouch" points="-17408,8192 -16128,8000 -17536,9472 -18432,9216"/>
<polygon class="poly-minor-ouch" points="-20480,10240 -18432,9216 -17536,9472 -17088,9920 -17408,11264"/>
<polygon class="poly-minor-ouch" points="-19456,15872 -16384,15360 -17408,18432 -19456,18432 -19456,17408 -19456,16384"/>
<polygon class="poly-minor-ouch" points="-25536,16384 -19456,16384 -19456,17408 -24576,17408"/>
<polygon class="poly" points="-24576,17408 -19456,17408 -19456,18432 -21504,18432 -23040,18432"/>
<polygon class="poly-minor-ouch" points="-25536,16384 -24576,17408 -24576,21504 -25600,22528 -26560,19520"/>
<polygon class="poly" points="-24576,17408 -23040,18432 -23040,20480 -24576,21504"/>
<polygon class="poly-minor-ouch" points="-23040,18432 -21504,18432 -21504,19456 -23040,20480"/>
<polygon class="poly-minor-ouch" points="-23040,20480 -21504,19456 -19456,20480 -18944,22528"/>
<polygon class="poly" points="-24576,21504 -23040,20480 -18944,22528 -18432,23040 -19968,24064"/>
<polygon class="poly-minor-ouch" points="-25600,22528 -24576,21504 -19968,24064 -22400,25728"/>
<polygon class="poly-minor-ouch" points="-19968,24064 -18432,23040 -16384,24576 -22400,25728"/>
<polygon class="poly-minor-ouch" points="-18944,22528 -19456,20480 -17408,20480 -15872,23040 -16384,24576 -18432,23040"/>
<polygon class="poly" points="-17408,20480 -16896,19968 -15360,19968 -14848,20480 -14848,22016 -15872,23040"/>
<polygon class="poly-minor-ouch" points="-16192,-12160 -14880,-13344 -9216,-10240 -11264,-8192 -15360,-6144 -17920,-5632 -19463,-8261"/>
<polygon class="poly-minor-ouch" points="-18240,-14528 -16832,-16352 -14880,-13344 -16192,-12160 -17088,-13056"/>
<polygon class="poly-minor-ouch" points="-9216,-4608 -5120,-5632 -4608,-512 -6144,0"/>
<polygon class="poly-minor-ouch" points="-9216,-4608 -6144,0 -8704,3328 -12288,0"/>
<polygon class="poly-minor-ouch" points="-12288,0 -8704,3328 -8960,5632 -13824,5632"/>
<polygon class="poly-minor-ouch" points="-8960,5632 -7680,10240 -13312,10752 -13824,5632"/>
<polygon class="poly-minor-ouch" points="-13312,10752 -7680,10240 -6656,11776 -11264,13824"/>
<polygon class="poly" points="-8704,3328 -8192,3840 -8192,4864 -8960,5632"/>
<polygon class="poly-platform" points="-8192,3840 -7936,3840 -7936,4864 -8192,4864"/>
<polygon class="poly" points="-7936,3840 -6656,2304 -5632,2304 -5120,3584 -6656,5376 -7936,4864"/>
<polygon class="poly" points="-6656,2048 -5632,2048 -5632,2304 -6656,2304"/>
<polygon class="poly" points="0,-27136 0,-27648 6144,-27648 6144,-25600 0,-25600 0,-26112"/>
<polygon class="poly" points="-9216,-24576 -7168,-24576 -7168,-24064 -9216,-24064"/>
<polygon class="poly" points="0,-25600 6144,-25600 6144,-22528 4096,-20480"/>
<polygon class="poly" points="-3072,-27136 0,-27136 0,-26112 -3072,-26112"/>
<polygon class="poly" points="-2048,-27648 -1024,-27648 -1024,-25600 -2048,-25600"/>
<polygon class="poly" points="-9216,-28672 -7168,-28672 -7168,-28160 -9216,-28160"/>
<polygon class="poly" points="-7168,-28672 -7168,-29696 -6144,-30720 -4096,-30720 -2048,-27648 -3072,-27648 -7168,-27648 -7168,-28160"/>
<polygon class="poly" points="-6656,-31232 -6144,-30720 -7168,-29696 -7680,-30208"/>
<polygon class="poly-minor-ouch" points="-10240,-29184 -9216,-28672 -9216,-28160 -10240,-27648"/>
<polygon class="poly-minor-ouch" points="-10240,-29184 -9984,-29696 -9472,-29696 -9216,-28672"/>
<polygon class="poly-minor-ouch" points="-10240,-27648 -9216,-28160 -9216,-24576 -10240,-25088"/>
<polygon class="poly-minor-ouch" points="-10240,-25088 -9216,-24576 -9216,-24064 -10240,-23552"/>
<polygon class="poly-minor-ouch" points="-10240,-23552 -9216,-24064 -9216,-20480 -10240,-19456"/>
<polygon class="poly-minor-ouch" points="-10240,-19456 -9216,-20480 -5632,-17920 -6144,-16384"/>
<polygon class="poly" points="-9216,-20480 -6012,-20448 -5616,-20016 -5632,-17920"/>
<polygon class="poly" points="-10752,-18432 -10240,-19456 -6144,-16384 -9728,-16384 -10752,-17408"/>
<polygon class="poly-platform" points="-16384,-27136 -14848,-27136 -14848,-25600 -16384,-25600"/>
<polygon class="poly" points="-16384,-27136 -15872,-30208 -13312,-28160 -14848,-27136"/>
<polygon class="poly" points="-15872,-30208 -14336,-31232 -12288,-29696 -13312,-28160"/>
<polygon class="poly-platform" points="-14336,-31232 -13312,-32256 -11264,-30720 -12288,-29696"/>
<polygon class="poly" points="-13312,-32256 -7680,-32256 -8192,-30720 -11264,-30720"/>
<polygon class="poly" points="-7680,-32256 -6656,-31232 -7680,-30208 -8192,-30720"/>
<polygon class="poly-minor-ouch" points="-5632,-17920 -4096,-16384 -4608,-14848 -6144,-16384"/>
<polygon class="poly-minor-ouch" points="-4096,-16384 1024,-16896 -2048,-15360 -4608,-14848"/>
<polygon class="poly-minor-ouch" points="1024,-16896 2560,-16896 5120,-15360 3072,-14848 -2048,-15360"/>
<polygon class="poly-minor-ouch" points="3072,-14336 3072,-14848 5120,-15360 5120,-13312"/>
<polygon class="poly-minor-ouch" points="2200,-13720 3072,-14336 5120,-13312 3400,-12040"/>
<polygon class="poly" points="-4096,-30720 0,-30720 -1024,-27648 -2048,-27648"/>
<polygon class="poly" points="0,-30720 5120,-30720 6144,-29696 6144,-27648 0,-27648 -1024,-27648"/>
<polygon class="poly" points="-7168,-27648 -3072,-27648 -3072,-27136 -3072,-26112 -3072,-25600 -7168,-25600"/>
<polygon class="poly-platform" points="-7680,-27648 -7168,-27648 -7168,-25600 -7680,-25600"/>
<polygon class="poly-platform" points="6144,-27648 6656,-27648 6656,-25600 6144,-25600"/>
<polygon class="poly" points="6656,-27648 9728,-27648 7680,-25600 6656,-25600"/>
<polygon class="poly" points="-8704,-27648 -7680,-27648 -7680,-25600 -8704,-25600"/>
<polygon class="poly" points="7680,-25600 9728,-27648 13824,-23552 10240,-23040"/>
<polygon class="poly" points="10240,-23040 13824,-23552 13824,-19968 13312,-18944 10752,-18944 10240,-19968"/>
<polygon class="poly-platform" points="14672,5936 15030,5577 15216,5760 14848,6128"/>
<polygon class="poly" points="14679,6321 14848,6128 15216,5760 15762,5233 16452,5976 15414,7035"/>
<polygon class="poly" points="15762,5233 16123,4871 16847,5595 16452,5976"/>
<polygon class="poly" points="15360,-1024 17920,-3584 17920,3072 16384,3072 15360,2048"/>
<polygon class="poly" points="10752,-7680 13312,-7680 13312,-6144 10752,-4096"/>
<polygon class="poly" points="-6688,-24064 -6688,-24576 -3072,-25600 -2048,-25600 -1024,-25600 0,-25600 4096,-20480 2048,-20480"/>
<polygon class="poly" points="-7168,-23040 -7168,-24064 -6688,-24064 2048,-20480 -4608,-20480"/>
<polygon class="poly" points="-7168,-24576 -6688,-24576 -6688,-24064 -7168,-24064"/>
<polygon class="poly" points="-7168,-25600 -3072,-25600 -6688,-24576 -7168,-24576"/>
<polygon class="poly" points="-18944,-24576 -18432,-24576 -18432,-23552 -18944,-23552"/>
<polygon class="poly" points="-22528,-24576 -18944,-24576 -18944,-23552 -20992,-23552"/>
<polygon class="poly" points="-25856,-26112 -25344,-26112 -25344,-25600 -25856,-25600"/>
<polygon class="poly" points="-23808,-26112 -23296,-26112 -23296,-25600 -23808,-25600"/>
<polygon class="poly" points="-20480,-17920 -20224,-17920 -20224,-16896 -20480,-16896"/>
<polygon class="poly" points="-27648,-17408 -27648,-16896 -28160,-16896 -28160,-17408"/>
<polygon class="poly-platform" points="16384,3072 17920,3072 17920,4608 16384,4608"/>
<polygon class="poly" points="16123,4871 16384,4608 17920,4608 17920,5120 17424,5580 16847,5595"/>
<polygon class="poly-minor-ouch" points="15872,21504 15872,28672 9216,28672"/>
<polygon class="poly" points="-4608,3072 -3584,3072 -3584,5632 -5632,5632"/>
<polygon class="poly" points="-4096,1536 -3072,2560 -3584,3072 -4608,3072"/>
<polygon class="poly" points="-5120,13312 -4096,13312 -4096,13568 -5120,13568"/>
<polygon class="poly" points="-5120,14080 -4096,14080 -4096,14336 -5120,14336"/>
<polygon class="poly-platform" points="-5120,13568 -4096,13568 -4096,14080 -5120,14080"/>
<polygon class="poly" points="-16896,19456 -15360,19456 -15360,19968 -16896,19968"/>
<polygon class="poly" points="-16384,18944 -15872,18944 -15360,19456 -16896,19456"/>
<polygon class="poly" points="-16384,18432 -15872,18432 -15872,18944 -16384,18944"/>
<polygon class="poly" points="-16384,17920 -15872,17920 -15872,18432 -16384,18432"/>
<polygon class="poly" points="-16384,16384 -15872,16384 -15872,16896 -15872,17920 -16384,17920"/>
<polygon class="poly-minor-ouch" points="-4176,-14724 -2048,-14848 -3456,-13176 -7380,-8676 -8192,-10240"/>
<polygon class="poly-platform" points="-6372,-9216 -6111,-9345 -5904,-8820 -6242,-8721"/>
<polygon class="poly" points="-14848,-21504 -13312,-22528 -11776,-19456 -13312,-18432"/>
<polygon class="poly" points="-6012,-20448 -5664,-20784 -5302,-20421 -5616,-20016"/>
<polygon class="poly-minor-ouch" points="512,24576 5120,24576 9216,28672 2560,28672"/>
<polygon class="poly" points="1024,22528 4096,22528 5120,24576 512,24576"/>
<polygon class="poly" points="-27648,-16896 -27136,-16896 -27136,-16384 -27648,-16384"/>
<polygon class="poly" points="-9984,-30208 -9472,-30208 -9472,-29696 -9984,-29696"/>
<polygon class="poly" points="11954,16923 12978,16923 12978,17178 11948,17168"/>
<polygon class="poly" points="16588,9396 17603,9396 17619,9804 16595,9804"/>
<polygon class="poly" points="6144,21504 15872,21504 9216,28672 5120,24576"/>
<polygon class="poly" points="13312,-6144 17920,-6144 17920,-3584 15360,-1024 12288,-1024 10752,-4096"/>
<polygon class="poly" points="8192,-10240 11264,-11776 11776,-11264 13312,-7680 10752,-7680"/>
<polygon class="poly" points="11776,-11264 12288,-11776 15872,-13312 15872,-10240 13312,-7680"/>
<polygon class="poly" points="10240,-15360 13824,-15360 15872,-13312 12288,-11776 11776,-12288"/>
<polygon class="poly" points="8192,-13312 10240,-15360 11776,-12288 11264,-11776 8192,-10240"/>
<polygon class="poly" points="11264,-11776 11776,-12288 12288,-11776 11776,-11264"/>
<polygon class="poly" points="15872,-13312 21504,-13312 21504,-11776 19968,-10240 15872,-10240"/>
<polygon class="poly" points="19968,-10240 21504,-11776 21504,-3584 19968,-6144"/>
<polygon class="poly" points="17920,-6144 19968,-6144 21504,-3584 17920,-3584"/>
<polygon class="poly" points="10240,-17920 10752,-18944 13312,-18944 13824,-17920 13824,-15360 10240,-15360"/>
<polygon class="poly" points="-3072,23552 -3072,22528 -3072,20480 1024,20480 1024,22528 512,24576 -1536,24576 -3072,24576"/>
<polygon class="poly" points="-3072,24576 -1536,24576 -1536,28672 -3072,30208"/>
<polygon class="poly" points="-1536,28672 2560,28672 9216,28672 15872,28672 17408,30208 -3072,30208"/>
<polygon class="poly" points="15872,21504 16384,21504 16896,21504 17408,21504 17408,30208 15872,28672"/>
<polygon class="poly" points="-1536,24576 512,24576 2560,28672 -1536,28672"/>
<polygon class="poly" points="16384,20992 16896,20992 16896,21504 16384,21504"/>
<polygon class="poly" points="-12800,24576 -5120,24576 -4096,25600 -13824,25600"/>
<polygon class="poly" points="-5120,22528 -4096,23552 -4096,25600 -5120,24576"/>
<polygon class="poly" points="-5120,22528 -4096,22528 -3072,22528 -3072,23552 -4096,23552"/>
<polygon class="poly" points="-5120,19968 -4096,19968 -4096,22528 -5120,22528"/>
</g>
<g class="elevation">
<line x1="8756" y1="4436" x2="9780" y2="4436"/>
<line x1="9780" y1="4436" x2="12676" y2="7332"/>
<line x1="5859" y1="7332" x2="8756" y2="4436"/>
<line x1="5859" y1="8356" x2="5859" y2="7332"/>
<line x1="12676" y1="7332" x2="12676" y2="8356"/>
<line x1="13400" y1="9080" x2="14424" y2="9080"/>
<line x1="8754" y1="11251" x2="5859" y2="8356"/>
<line x1="9778" y1="11251" x2="8754" y2="11251"/>
<line x1="10501" y1="12998" x2="10501" y2="11974"/>
<line x1="10501" y1="11974" x2="13400" y2="9080"/>
<line x1="12676" y1="8356" x2="9778" y2="11251"/>
<line x1="11955" y1="14451" x2="10501" y2="12998"/>
<line x1="12979" y1="14451" x2="11955" y2="14451"/>
<line x1="12978" y1="16923" x2="11954" y2="16923"/>
<line x1="14424" y1="9080" x2="15840" y2="10528"/>
<line x1="16595" y1="9804" x2="17619" y2="9804"/>
<line x1="15840" y1="10528" x2="15871" y2="11551"/>
<line x1="15871" y1="11551" x2="12979" y2="14451"/>
<line x1="6144" y1="19968" x2="5120" y2="19968"/>
<line x1="5120" y1="24576" x2="5120" y2="19968"/>
<line x1="-5632" y1="5632" x2="-3584" y2="5632"/>
<line x1="-5120" y1="15872" x2="-5632" y2="15360"/>
<line x1="-5120" y1="17408" x2="-5120" y2="15872"/>
<line x1="-5632" y1="17920" x2="-5120" y2="17408"/>
<line x1="-11776" y1="15360" x2="-12288" y2="15872"/>
<line x1="-11264" y1="15360" x2="-11776" y2="15360"/>
<line x1="-11264" y1="15360" x2="-11264" y2="14848"/>
<line x1="-6144" y1="14848" x2="-6144" y2="15360"/>
<line x1="-6144" y1="15360" x2="-5632" y2="15360"/>
<line x1="-6144" y1="17920" x2="-5632" y2="17920"/>
<line x1="-6144" y1="18432" x2="-6144" y2="17920"/>
<line x1="-12288" y1="15872" x2="-12288" y2="17408"/>
<line x1="-12288" y1="17408" x2="-11776" y2="17920"/>
<line x1="-11264" y1="18432" x2="-11264" y2="17920"/>
<line x1="-11776" y1="17920" x2="-11264" y2="17920"/>
<line x1="-15360" y1="16384" x2="-15360" y2="16896"/>
<line x1="4658" y1="-1109" x2="4658" y2="-2133"/>
<line x1="2590" y1="-353" x2="3634" y2="-2115"/>
<line x1="800" y1="642" x2="2590" y2="-353"/>
<line x1="-2048" y1="832" x2="800" y2="642"/>
<line x1="-1507" y1="-6059" x2="-483" y2="-6059"/>
<line x1="-1507" y1="-8107" x2="-483" y2="-8107"/>
<line x1="-3072" y1="-12800" x2="-1024" y2="-13312"/>
<line x1="-483" y1="-7539" x2="-483" y2="-6592"/>
<line x1="-1507" y1="-6592" x2="-1491" y2="-7539"/>
<line x1="-3072" y1="2560" x2="-4096" y2="1536"/>
<line x1="5973" y1="-1100" x2="5975" y2="-2133"/>
<line x1="6633" y1="-1100" x2="6633" y2="-2123"/>
<line x1="7282" y1="-1100" x2="7282" y2="-2123"/>
<line x1="7984" y1="-1100" x2="7984" y2="-2123"/>
<line x1="3634" y1="-2115" x2="2517" y2="-5396"/>
<line x1="-20480" y1="10240" x2="-17408" y2="11264"/>
<line x1="-17408" y1="20480" x2="-15872" y2="23040"/>
<line x1="-16384" y1="15360" x2="-19456" y2="15872"/>
<line x1="-20480" y1="-17920" x2="-20480" y2="-16896"/>
<line x1="-9216" y1="-10240" x2="-14880" y2="-13344"/>
<line x1="-17536" y1="9472" x2="-16128" y2="8000"/>
<line x1="-17088" y1="9920" x2="-15232" y2="7872"/>
<line x1="-15232" y1="7872" x2="-17088" y2="4864"/>
<line x1="-17600" y1="5440" x2="-16128" y2="8000"/>
<line x1="-21568" y1="2368" x2="-17088" y2="4864"/>
<line x1="-22272" y1="2752" x2="-17600" y2="5440"/>
<line x1="-24704" y1="-1216" x2="-22272" y2="2752"/>
<line x1="-23488" y1="-1024" x2="-21568" y2="2368"/>
<line x1="-23040" y1="-5568" x2="-24704" y2="-1216"/>
<line x1="-22144" y1="-4864" x2="-23488" y2="-1024"/>
<line x1="-20540" y1="-8728" x2="-23040" y2="-5568"/>
<line x1="-19463" y1="-8261" x2="-22144" y2="-4864"/>
<line x1="-17088" y1="9920" x2="-17536" y2="9472"/>
<line x1="-19456" y1="17408" x2="-24576" y2="17408"/>
<line x1="-24576" y1="17408" x2="-24576" y2="21504"/>
<line x1="-19968" y1="24064" x2="-24576" y2="21504"/>
<line x1="-18432" y1="23040" x2="-19968" y2="24064"/>
<line x1="-18944" y1="22528" x2="-18432" y2="23040"/>
<line x1="-18944" y1="22528" x2="-23040" y2="20480"/>
<line x1="-23040" y1="18432" x2="-23040" y2="20480"/>
<line x1="-21504" y1="18432" x2="-23040" y2="18432"/>
<line x1="-19456" y1="18432" x2="-19456" y2="17408"/>
<line x1="-20540" y1="-8728" x2="-17088" y2="-13056"/>
<line x1="-16192" y1="-12160" x2="-19463" y2="-8261"/>
<line x1="-14880" y1="-13344" x2="-16832" y2="-16352"/>
<line x1="-17088" y1="-13056" x2="-16192" y2="-12160"/>
<line x1="-16896" y1="19968" x2="-15360" y2="19968"/>
<line x1="-8704" y1="3328" x2="-8960" y2="5632"/>
<line x1="-7680" y1="10240" x2="-13312" y2="10752"/>
<line x1="-6656" y1="2304" x2="-5632" y2="2304"/>
<line x1="6144" y1="-25600" x2="0" y2="-25600"/>
<line x1="0" y1="-27648" x2="6144" y2="-27648"/>
<line x1="-3072" y1="-27648" x2="-7168" y2="-27648"/>
<line x1="-7168" y1="-24576" x2="-7168" y2="-24064"/>
<line x1="-7168" y1="-28672" x2="-7168" y2="-28160"/>
<line x1="-9984" y1="-29696" x2="-9472" y2="-29696"/>
<line x1="-9216" y1="-20480" x2="-5632" y2="-17920"/>
<line x1="-6144" y1="-16384" x2="-10240" y2="-19456"/>
<line x1="5120" y1="-13312" x2="3072" y2="-14336"/>
<line x1="-3072" y1="-25600" x2="-7168" y2="-25600"/>
<line x1="15872" y1="28672" x2="9216" y2="28672"/>
<line x1="15872" y1="21504" x2="15872" y2="28672"/>
<line x1="-4608" y1="3072" x2="-3584" y2="3072"/>
<line x1="-16384" y1="18944" x2="-15872" y2="18944"/>
<line x1="-16384" y1="17920" x2="-15872" y2="17920"/>
<line x1="-16384" y1="18432" x2="-15872" y2="18432"/>
<line x1="-16896" y1="19456" x2="-15360" y2="19456"/>
<line x1="512" y1="24576" x2="5120" y2="24576"/>
<line x1="9216" y1="28672" x2="2560" y2="28672"/>
<line x1="11776" y1="-12288" x2="11264" y2="-11776"/>
<line x1="11264" y1="-11776" x2="11776" y2="-11264"/>
<line x1="11776" y1="-11264" x2="12288" y2="-11776"/>
<line x1="12288" y1="-11776" x2="11776" y2="-12288"/>
<line x1="-1536" y1="24576" x2="-1536" y2="28672"/>
<line x1="-1536" y1="28672" x2="2560" y2="28672"/>
<line x1="512" y1="24576" x2="-1536" y2="24576"/>
</g>
<g class="wall">
<line x1="10503" y1="2688" x2="10503" y2="3712"/>
<line x1="9778" y1="1963" x2="10503" y2="2688"/>
<line x1="8032" y1="2656" x2="8754" y2="1963"/>
<line x1="8032" y1="3712" x2="8032" y2="2656"/>
<line x1="10503" y1="3712" x2="13399" y2="6608"/>
<line x1="5135" y1="6608" x2="8032" y2="3712"/>
<line x1="5135" y1="9079" x2="4111" y2="9079"/>
<line x1="4111" y1="9079" x2="3386" y2="8354"/>
<line x1="3386" y1="7330" x2="4109" y2="6606"/>
<line x1="4109" y1="6606" x2="5135" y2="6608"/>
<line x1="15147" y1="7332" x2="15147" y2="8356"/>
<line x1="14422" y1="6607" x2="15147" y2="7332"/>
<line x1="13399" y1="6608" x2="14422" y2="6607"/>
<line x1="8031" y1="11975" x2="5135" y2="9079"/>
<line x1="9777" y1="13721" x2="8753" y2="13721"/>
<line x1="8753" y1="13721" x2="8028" y2="12996"/>
<line x1="8028" y1="12996" x2="8031" y2="11975"/>
<line x1="-828" y1="7326" x2="3386" y2="7330"/>
<line x1="3386" y1="8354" x2="-828" y2="8352"/>
<line x1="11200" y1="15168" x2="9777" y2="13721"/>
<line x1="15147" y1="8356" x2="16595" y2="9804"/>
<line x1="13703" y1="15175" x2="13703" y2="16199"/>
<line x1="13703" y1="16199" x2="12978" y2="16923"/>
<line x1="11230" y1="16199" x2="11200" y2="15168"/>
<line x1="17619" y1="9804" x2="18343" y2="10528"/>
<line x1="18343" y1="10528" x2="18343" y2="11552"/>
<line x1="18343" y1="11552" x2="17619" y2="12275"/>
<line x1="17619" y1="12275" x2="16595" y2="12275"/>
<line x1="16595" y1="12275" x2="13703" y2="15175"/>
<line x1="8334" y1="19094" x2="11230" y2="16199"/>
<line x1="11954" y1="16923" x2="8333" y2="20543"/>
<line x1="8333" y1="20543" x2="7936" y2="20096"/>
<line x1="6886" y1="17646" x2="8334" y2="19094"/>
<line x1="7936" y1="20096" x2="6886" y2="19093"/>
<line x1="6886" y1="19093" x2="6144" y2="19968"/>
<line x1="4096" y1="19968" x2="2560" y2="18432"/>
<line x1="2560" y1="18432" x2="2560" y2="16384"/>
<line x1="2560" y1="16384" x2="4096" y2="14848"/>
<line x1="4096" y1="14848" x2="4908" y2="15667"/>
<line x1="4908" y1="15667" x2="6886" y2="17646"/>
<line x1="6144" y1="19968" x2="6144" y2="21504"/>
<line x1="4096" y1="22528" x2="4096" y2="19968"/>
<line x1="1024" y1="22528" x2="4096" y2="22528"/>
<line x1="1024" y1="20480" x2="1024" y2="22528"/>
<line x1="-3072" y1="20480" x2="1024" y2="20480"/>
<line x1="-3072" y1="22528" x2="-3072" y2="20480"/>
<line x1="-1852" y1="7326" x2="-828" y2="7326"/>
<line x1="-3584" y1="5632" x2="-1852" y2="7326"/>
<line x1="-828" y1="8352" x2="-1852" y2="8352"/>
<line x1="-1852" y1="8352" x2="-3072" y2="11264"/>
<line x1="-7168" y1="8192" x2="-5632" y2="5632"/>
<line x1="-7168" y1="10240" x2="-7168" y2="8192"/>
<line x1="-6144" y1="12288" x2="-7168" y2="10240"/>
<line x1="-5120" y1="13312" x2="-6144" y2="12288"/>
<line x1="-3072" y1="12288" x2="-4096" y2="13312"/>
<line x1="-3072" y1="11264" x2="-3072" y2="12288"/>
<line x1="-5120" y1="14336" x2="-5120" y2="14080"/>
<line x1="-5632" y1="14848" x2="-5120" y2="14336"/>
<line x1="-5120" y1="18944" x2="-5632" y2="18432"/>
<line x1="-4096" y1="13312" x2="-4096" y2="13568"/>
<line x1="-4096" y1="14336" x2="-2048" y2="14336"/>
<line x1="-2048" y1="14336" x2="-1024" y2="15360"/>
<line x1="-1024" y1="15360" x2="-1024" y2="16440"/>
<line x1="-1024" y1="18432" x2="-2048" y2="19456"/>
<line x1="-2048" y1="19456" x2="-5120" y2="19456"/>
<line x1="-5120" y1="19456" x2="-5120" y2="18944"/>
<line x1="-12288" y1="14336" x2="-11776" y2="14848"/>
<line x1="-11776" y1="14848" x2="-11264" y2="14848"/>
<line x1="-6144" y1="14848" x2="-5632" y2="14848"/>
<line x1="-5632" y1="18432" x2="-6144" y2="18432"/>
<line x1="-11776" y1="18432" x2="-12288" y2="18944"/>
<line x1="-12288" y1="18944" x2="-12800" y2="19456"/>
<line x1="-11264" y1="18432" x2="-11776" y2="18432"/>
<line x1="-14336" y1="19456" x2="-15360" y2="18432"/>
<line x1="-15360" y1="18432" x2="-15360" y2="16896"/>
<line x1="-15360" y1="14848" x2="-14336" y2="13824"/>
<line x1="-14336" y1="13824" x2="-12288" y2="13824"/>
<line x1="-12288" y1="13824" x2="-12288" y2="14336"/>
<line x1="-15360" y1="16384" x2="-15360" y2="14848"/>
<line x1="-15872" y1="16384" x2="-15360" y2="16384"/>
<line x1="-6144" y1="18432" x2="-6656" y2="19968"/>
<line x1="-6656" y1="19968" x2="-10752" y2="19968"/>
<line x1="-10752" y1="19968" x2="-11264" y2="18944"/>
<line x1="-11264" y1="18944" x2="-11264" y2="18432"/>
<line x1="-11264" y1="14848" x2="-11264" y2="14336"/>
<line x1="-11264" y1="14336" x2="-11264" y2="13824"/>
<line x1="-6656" y1="11776" x2="-6144" y2="13824"/>
<line x1="-6144" y1="13824" x2="-6144" y2="14848"/>
<line x1="-13824" y1="19456" x2="-14336" y2="19456"/>
<line x1="-13824" y1="25600" x2="-13824" y2="19456"/>
<line x1="-12800" y1="19456" x2="-12800" y2="24576"/>
<line x1="-1024" y1="16440" x2="-1024" y2="18432"/>
<line x1="-15360" y1="16896" x2="-15872" y2="16896"/>
<line x1="8754" y1="1963" x2="8754" y2="-1109"/>
<line x1="9778" y1="-2133" x2="9778" y2="1963"/>
<line x1="7984" y1="-2123" x2="9778" y2="-2133"/>
<line x1="8754" y1="-1109" x2="7984" y2="-1100"/>
<line x1="4658" y1="-1109" x2="3674" y2="687"/>
<line x1="3674" y1="687" x2="1016" y2="2227"/>
<line x1="1016" y1="2227" x2="-2048" y2="2560"/>
<line x1="4110" y1="-4107" x2="4658" y2="-2133"/>
<line x1="2517" y1="-5396" x2="4110" y2="-4107"/>
<line x1="-2048" y1="1536" x2="-2048" y2="832"/>
<line x1="-483" y1="-6059" x2="2517" y2="-5396"/>
<line x1="-3374" y1="-5216" x2="-1507" y2="-6059"/>
<line x1="-5120" y1="-5632" x2="-3374" y2="-5216"/>
<line x1="-483" y1="-6592" x2="-483" y2="-6059"/>
<line x1="-1491" y1="-7539" x2="-1507" y2="-8107"/>
<line x1="-1507" y1="-8107" x2="-3456" y2="-8960"/>
<line x1="1240" y1="-9214" x2="-483" y2="-8107"/>
<line x1="2080" y1="-11081" x2="1240" y2="-9214"/>
<line x1="-1024" y1="-13312" x2="947" y2="-12787"/>
<line x1="-4305" y1="-10923" x2="-3072" y2="-12800"/>
<line x1="-3456" y1="-8960" x2="-4305" y2="-10923"/>
<line x1="-483" y1="-8107" x2="-483" y2="-7539"/>
<line x1="-483" y1="-7539" x2="2560" y2="-7488"/>
<line x1="2589" y1="-6592" x2="-483" y2="-6592"/>
<line x1="2560" y1="-7488" x2="2589" y2="-6592"/>
<line x1="-2048" y1="832" x2="-4608" y2="-512"/>
<line x1="-4662" y1="-10731" x2="-4305" y2="-10923"/>
<line x1="-3456" y1="-8960" x2="-3759" y2="-8778"/>
<line x1="-3759" y1="-8778" x2="-4662" y2="-10731"/>
<line x1="-4578" y1="-7539" x2="-1491" y2="-7539"/>
<line x1="-1507" y1="-6059" x2="-1507" y2="-6592"/>
<line x1="-1507" y1="-6592" x2="-4579" y2="-6592"/>
<line x1="-4096" y1="1536" x2="-2048" y2="1536"/>
<line x1="-2048" y1="2560" x2="-3072" y2="2560"/>
<line x1="14422" y1="6607" x2="14679" y2="6321"/>
<line x1="14679" y1="6321" x2="15414" y2="7035"/>
<line x1="15414" y1="7035" x2="15147" y2="7332"/>
<line x1="16452" y1="5976" x2="15414" y2="7035"/>
<line x1="17754" y1="12408" x2="17619" y2="12275"/>
<line x1="18480" y1="11682" x2="17754" y2="12408"/>
<line x1="18343" y1="11552" x2="18480" y2="11682"/>
<line x1="18480" y1="11682" x2="19217" y2="12408"/>
<line x1="19217" y1="12408" x2="18491" y2="13134"/>
<line x1="18491" y1="13134" x2="17754" y2="12408"/>
<line x1="-3759" y1="-8778" x2="-4809" y2="-8295"/>
<line x1="-5586" y1="-10353" x2="-4662" y2="-10731"/>
<line x1="-6111" y1="-9345" x2="-5586" y2="-10353"/>
<line x1="-5904" y1="-8820" x2="-6111" y2="-9345"/>
<line x1="-4809" y1="-8295" x2="-5904" y2="-8820"/>
<line x1="-10773" y1="-7539" x2="-4578" y2="-7539"/>
<line x1="-4579" y1="-6592" x2="-9786" y2="-6573"/>
<line x1="-11776" y1="-7168" x2="-10773" y2="-7539"/>
<line x1="-9786" y1="-6573" x2="-10240" y2="-6144"/>
<line x1="4658" y1="-2133" x2="4906" y2="-2123"/>
<line x1="4906" y1="-1100" x2="4658" y2="-1109"/>
<line x1="4906" y1="-1100" x2="4906" y2="-2123"/>
<line x1="4906" y1="-2123" x2="5214" y2="-2123"/>
<line x1="5214" y1="-1100" x2="4906" y2="-1100"/>
<line x1="5214" y1="-1100" x2="5214" y2="-2123"/>
<line x1="5214" y1="-2123" x2="5975" y2="-2133"/>
<line x1="5973" y1="-1100" x2="5214" y2="-1100"/>
<line x1="5975" y1="-2133" x2="6633" y2="-2123"/>
<line x1="6633" y1="-1100" x2="5973" y2="-1100"/>
<line x1="6633" y1="-2123" x2="7282" y2="-2123"/>
<line x1="7282" y1="-1100" x2="6633" y2="-1100"/>
<line x1="7282" y1="-2123" x2="7984" y2="-2123"/>
<line x1="7984" y1="-1100" x2="7282" y2="-1100"/>
<line x1="947" y1="-12787" x2="2200" y2="-13720"/>
<line x1="3400" y1="-12040" x2="2080" y2="-11081"/>
<line x1="-14336" y1="-6144" x2="-11776" y2="-7168"/>
<line x1="-10240" y1="-6144" x2="-12800" y2="-5120"/>
<line x1="-14336" y1="-1024" x2="-14336" y2="-6144"/>
<line x1="-12800" y1="-5120" x2="-12800" y2="-2048"/>
<line x1="-14336" y1="-512" x2="-14336" y2="-1024"/>
<line x1="-16384" y1="-512" x2="-14336" y2="-512"/>
<line x1="-16384" y1="1024" x2="-16384" y2="-512"/>
<line x1="-13312" y1="1024" x2="-16384" y2="1024"/>
<line x1="-12800" y1="-1536" x2="-13312" y2="1024"/>
<line x1="-12288" y1="-1536" x2="-12800" y2="-1536"/>
<line x1="-12288" y1="-2048" x2="-12288" y2="-1536"/>
<line x1="-12800" y1="-2048" x2="-12288" y2="-2048"/>
<line x1="-26624" y1="2048" x2="-26624" y2="1536"/>
<line x1="-26624" y1="1536" x2="-25600" y2="1536"/>
<line x1="-25600" y1="1536" x2="-25600" y2="2048"/>
<line x1="-28672" y1="4096" x2="-26624" y2="2048"/>
<line x1="-25600" y1="2048" x2="-23552" y2="4096"/>
<line x1="-23552" y1="4096" x2="-23552" y2="6144"/>
<line x1="-23552" y1="6144" x2="-25600" y2="8192"/>
<line x1="-26624" y1="8192" x2="-28672" y2="6144"/>
<line x1="-28672" y1="6144" x2="-28672" y2="4096"/>
<line x1="-26624" y1="12288" x2="-26624" y2="8192"/>
<line x1="-25600" y1="8192" x2="-25600" y2="11264"/>
<line x1="-23552" y1="12288" x2="-26624" y2="12288"/>
<line x1="-25600" y1="11264" x2="-22528" y2="11264"/>
<line x1="-22528" y1="11264" x2="-20480" y2="10240"/>
<line x1="-17408" y1="11264" x2="-16384" y2="15360"/>
<line x1="-16384" y1="15360" x2="-17408" y2="18432"/>
<line x1="-17408" y1="18432" x2="-19456" y2="18432"/>
<line x1="-22528" y1="14336" x2="-23552" y2="12288"/>
<line x1="-19456" y1="15872" x2="-22528" y2="14336"/>
<line x1="-19456" y1="16384" x2="-19456" y2="15872"/>
<line x1="-25536" y1="16384" x2="-19456" y2="16384"/>
<line x1="-26560" y1="19520" x2="-25536" y2="16384"/>
<line x1="-25600" y1="22528" x2="-26560" y2="19520"/>
<line x1="-22400" y1="25728" x2="-25600" y2="22528"/>
<line x1="-16384" y1="24576" x2="-22400" y2="25728"/>
<line x1="-15872" y1="23040" x2="-16384" y2="24576"/>
<line x1="-19456" y1="20480" x2="-17408" y2="20480"/>
<line x1="-21504" y1="19456" x2="-19456" y2="20480"/>
<line x1="-21504" y1="18432" x2="-21504" y2="19456"/>
<line x1="-13824" y1="7680" x2="-17408" y2="11264"/>
<line x1="-15872" y1="3072" x2="-13824" y2="7680"/>
<line x1="-19968" y1="1536" x2="-15872" y2="3072"/>
<line x1="-21504" y1="6144" x2="-23040" y2="4096"/>
<line x1="-18944" y1="6656" x2="-21504" y2="6144"/>
<line x1="-17408" y1="8192" x2="-18944" y2="6656"/>
<line x1="-18432" y1="9216" x2="-17408" y2="8192"/>
<line x1="-20480" y1="10240" x2="-18432" y2="9216"/>
<line x1="-23040" y1="4096" x2="-26112" y2="-1024"/>
<line x1="-20992" y1="-1024" x2="-19968" y2="1536"/>
<line x1="-26112" y1="-1024" x2="-25088" y2="-5632"/>
<line x1="-25088" y1="-5632" x2="-21504" y2="-9216"/>
<line x1="-19968" y1="-4096" x2="-20992" y2="-1024"/>
<line x1="-17920" y1="-5632" x2="-19968" y2="-4096"/>
<line x1="-15360" y1="-6144" x2="-17920" y2="-5632"/>
<line x1="-21504" y1="-9216" x2="-18240" y2="-14528"/>
<line x1="-18240" y1="-14528" x2="-16832" y2="-16352"/>
<line x1="-16832" y1="-16352" x2="-13312" y2="-16384"/>
<line x1="-12288" y1="-16384" x2="-10240" y2="-16384"/>
<line x1="-10240" y1="-16384" x2="-9216" y2="-15360"/>
<line x1="-9216" y1="-15360" x2="-9216" y2="-10240"/>
<line x1="-11264" y1="-8192" x2="-15360" y2="-6144"/>
<line x1="-13312" y1="-16384" x2="-13312" y2="-17408"/>
<line x1="-12288" y1="-17408" x2="-12288" y2="-16384"/>
<line x1="-11776" y1="-19456" x2="-12288" y2="-17408"/>
<line x1="-13312" y1="-17408" x2="-13312" y2="-18432"/>
<line x1="-15360" y1="-23552" x2="-13312" y2="-22528"/>
<line x1="-14848" y1="-21504" x2="-16384" y2="-22528"/>
<line x1="-14848" y1="-25600" x2="-15360" y2="-23552"/>
<line x1="-16384" y1="-25600" x2="-16384" y2="-27136"/>
<line x1="-18432" y1="-24576" x2="-16384" y2="-25600"/>
<line x1="-16384" y1="-22528" x2="-18432" y2="-23552"/>
<line x1="-14848" y1="-27136" x2="-14848" y2="-25600"/>
<line x1="-16384" y1="-25600" x2="-14848" y2="-25600"/>
<line x1="-22528" y1="-24576" x2="-18944" y2="-24576"/>
<line x1="-18432" y1="-23552" x2="-18944" y2="-23552"/>
<line x1="-22528" y1="-21504" x2="-22528" y2="-24576"/>
<line x1="-20992" y1="-23552" x2="-20992" y2="-19968"/>
<line x1="-20992" y1="-19968" x2="-23552" y2="-19968"/>
<line x1="-23040" y1="-21504" x2="-22528" y2="-21504"/>
<line x1="-23296" y1="-25600" x2="-23040" y2="-21504"/>
<line x1="-24064" y1="-21504" x2="-23808" y2="-25600"/>
<line x1="-25088" y1="-21504" x2="-24064" y2="-21504"/>
<line x1="-25344" y1="-25600" x2="-25088" y2="-21504"/>
<line x1="-26112" y1="-21504" x2="-25856" y2="-25600"/>
<line x1="-27648" y1="-21504" x2="-26112" y2="-21504"/>
<line x1="-27648" y1="-19456" x2="-27648" y2="-21504"/>
<line x1="-26112" y1="-19456" x2="-26112" y2="-17920"/>
<line x1="-26112" y1="-17920" x2="-20480" y2="-17920"/>
<line x1="-20480" y1="-16896" x2="-27136" y2="-16896"/>
<line x1="-7380" y1="-8676" x2="-11264" y2="-8192"/>
<line x1="-9216" y1="-10240" x2="-8192" y2="-10240"/>
<line x1="-8192" y1="-10240" x2="-4176" y2="-14724"/>
<line x1="-4176" y1="-14724" x2="-2048" y2="-14848"/>
<line x1="-3072" y1="-12800" x2="-3456" y2="-13176"/>
<line x1="-2048" y1="-14848" x2="-1024" y2="-13312"/>
<line x1="-25600" y1="-19968" x2="-26112" y2="-19456"/>
<line x1="-23552" y1="-19968" x2="-25600" y2="-19968"/>
<line x1="-27648" y1="-17408" x2="-27648" y2="-19456"/>
<line x1="-19456" y1="18432" x2="-21504" y2="18432"/>
<line x1="-17408" y1="20480" x2="-16896" y2="19968"/>
<line x1="-15360" y1="19968" x2="-14848" y2="20480"/>
<line x1="-14848" y1="20480" x2="-14848" y2="22016"/>
<line x1="-14848" y1="22016" x2="-15872" y2="23040"/>
<line x1="-9216" y1="-4608" x2="-5120" y2="-5632"/>
<line x1="-12288" y1="0" x2="-9216" y2="-4608"/>
<line x1="-4608" y1="-512" x2="-6144" y2="0"/>
<line x1="-6144" y1="0" x2="-8704" y2="3328"/>
<line x1="-7680" y1="10240" x2="-6656" y2="11776"/>
<line x1="-11264" y1="13824" x2="-13312" y2="10752"/>
<line x1="-8960" y1="5632" x2="-7680" y2="10240"/>
<line x1="-13824" y1="5632" x2="-12288" y2="0"/>
<line x1="-13312" y1="10752" x2="-13824" y2="5632"/>
<line x1="-8704" y1="3328" x2="-8192" y2="3840"/>
<line x1="-8192" y1="3840" x2="-8192" y2="4864"/>
<line x1="-8192" y1="4864" x2="-8960" y2="5632"/>
<line x1="-8192" y1="3840" x2="-7936" y2="3840"/>
<line x1="-7936" y1="4864" x2="-8192" y2="4864"/>
<line x1="-7936" y1="3840" x2="-7936" y2="4864"/>
<line x1="-7936" y1="3840" x2="-6656" y2="2304"/>
<line x1="-6656" y1="5376" x2="-7936" y2="4864"/>
<line x1="-5120" y1="3584" x2="-6656" y2="5376"/>
<line x1="-5632" y1="2304" x2="-5120" y2="3584"/>
<line x1="-5632" y1="2048" x2="-5632" y2="2304"/>
<line x1="-6656" y1="2048" x2="-5632" y2="2048"/>
<line x1="-6656" y1="2304" x2="-6656" y2="2048"/>
<line x1="-4608" y1="-20480" x2="-7168" y2="-23040"/>
<line x1="4096" y1="-20480" x2="2048" y2="-20480"/>
<line x1="6144" y1="-22528" x2="4096" y2="-20480"/>
<line x1="6144" y1="-25600" x2="6144" y2="-22528"/>
<line x1="-7168" y1="-24576" x2="-7168" y2="-25600"/>
<line x1="-1024" y1="-25600" x2="0" y2="-25600"/>
<line x1="-3072" y1="-25600" x2="-2048" y2="-25600"/>
<line x1="6144" y1="-27648" x2="6144" y2="-25600"/>
<line x1="-7168" y1="-25600" x2="-7168" y2="-27648"/>
<line x1="-3072" y1="-26112" x2="-3072" y2="-25600"/>
<line x1="0" y1="-27648" x2="-1024" y2="-27648"/>
<line x1="0" y1="-25600" x2="0" y2="-26112"/>
<line x1="0" y1="-27136" x2="0" y2="-27648"/>
<line x1="-3072" y1="-27648" x2="-3072" y2="-27136"/>
<line x1="-3072" y1="-27136" x2="0" y2="-27136"/>
<line x1="0" y1="-26112" x2="-3072" y2="-26112"/>
<line x1="6144" y1="-29696" x2="6144" y2="-27648"/>
<line x1="5120" y1="-30720" x2="6144" y2="-29696"/>
<line x1="-4096" y1="-30720" x2="0" y2="-30720"/>
<line x1="-7168" y1="-27648" x2="-7168" y2="-28160"/>
<line x1="-6656" y1="-31232" x2="-6144" y2="-30720"/>
<line x1="-7168" y1="-29696" x2="-7680" y2="-30208"/>
<line x1="-7680" y1="-32256" x2="-6656" y2="-31232"/>
<line x1="-13312" y1="-32256" x2="-7680" y2="-32256"/>
<line x1="-7680" y1="-30208" x2="-8192" y2="-30720"/>
<line x1="-8192" y1="-30720" x2="-11264" y2="-30720"/>
<line x1="-14336" y1="-31232" x2="-13312" y2="-32256"/>
<line x1="-15872" y1="-30208" x2="-14336" y2="-31232"/>
<line x1="-11264" y1="-30720" x2="-12288" y2="-29696"/>
<line x1="-12288" y1="-29696" x2="-13312" y2="-28160"/>
<line x1="-9216" y1="-24576" x2="-7168" y2="-24576"/>
<line x1="-7168" y1="-24064" x2="-9216" y2="-24064"/>
<line x1="-2048" y1="-27648" x2="-3072" y2="-27648"/>
<line x1="-2048" y1="-25600" x2="-2048" y2="-27648"/>
<line x1="-1024" y1="-27648" x2="-1024" y2="-25600"/>
<line x1="-6144" y1="-30720" x2="-4096" y2="-30720"/>
<line x1="-7168" y1="-28672" x2="-7168" y2="-29696"/>
<line x1="-9216" y1="-28672" x2="-7168" y2="-28672"/>
<line x1="-7168" y1="-28160" x2="-9216" y2="-28160"/>
<line x1="-13312" y1="-32256" x2="-11264" y2="-30720"/>
<line x1="-14336" y1="-31232" x2="-12288" y2="-29696"/>
<line x1="-9472" y1="-29696" x2="-9216" y2="-28672"/>
<line x1="-10240" y1="-29184" x2="-9984" y2="-29696"/>
<line x1="-10240" y1="-27648" x2="-10240" y2="-29184"/>
<line x1="-9216" y1="-28160" x2="-9216" y2="-24576"/>
<line x1="-10240" y1="-23552" x2="-10240" y2="-25088"/>
<line x1="-10240" y1="-25088" x2="-10240" y2="-27648"/>
<line x1="-9216" y1="-24064" x2="-9216" y2="-20480"/>
<line x1="-10240" y1="-19456" x2="-10240" y2="-23552"/>
<line x1="-10752" y1="-18432" x2="-10240" y2="-19456"/>
<line x1="-10752" y1="-17408" x2="-10752" y2="-18432"/>
<line x1="-9728" y1="-16384" x2="-10752" y2="-17408"/>
<line x1="-6144" y1="-16384" x2="-9728" y2="-16384"/>
<line x1="-5616" y1="-20016" x2="-5632" y2="-17920"/>
<line x1="-9216" y1="-20480" x2="-6012" y2="-20448"/>
<line x1="-16384" y1="-27136" x2="-15872" y2="-30208"/>
<line x1="-13312" y1="-28160" x2="-14848" y2="-27136"/>
<line x1="-5632" y1="-17920" x2="-4096" y2="-16384"/>
<line x1="-4608" y1="-14848" x2="-6144" y2="-16384"/>
<line x1="-2048" y1="-15360" x2="-4608" y2="-14848"/>
<line x1="-4096" y1="-16384" x2="1024" y2="-16896"/>
<line x1="3072" y1="-14848" x2="-2048" y2="-15360"/>
<line x1="3072" y1="-14336" x2="3072" y2="-14848"/>
<line x1="2200" y1="-13720" x2="3072" y2="-14336"/>
<line x1="5120" y1="-13312" x2="3400" y2="-12040"/>
<line x1="5120" y1="-15360" x2="5120" y2="-13312"/>
<line x1="2560" y1="-16896" x2="5120" y2="-15360"/>
<line x1="1024" y1="-16896" x2="2560" y2="-16896"/>
<line x1="-16384" y1="-27136" x2="-14848" y2="-27136"/>
<line x1="0" y1="-30720" x2="5120" y2="-30720"/>
<line x1="6144" y1="-27648" x2="6656" y2="-27648"/>
<line x1="6656" y1="-27648" x2="6656" y2="-25600"/>
<line x1="6656" y1="-25600" x2="6144" y2="-25600"/>
<line x1="-7680" y1="-27648" x2="-7168" y2="-27648"/>
<line x1="-7680" y1="-25600" x2="-7680" y2="-27648"/>
<line x1="-7168" y1="-25600" x2="-7680" y2="-25600"/>
<line x1="6656" y1="-27648" x2="9728" y2="-27648"/>
<line x1="7680" y1="-25600" x2="6656" y2="-25600"/>
<line x1="-8704" y1="-27648" x2="-7680" y2="-27648"/>
<line x1="-8704" y1="-25600" x2="-8704" y2="-27648"/>
<line x1="-7680" y1="-25600" x2="-8704" y2="-25600"/>
<line x1="9728" y1="-27648" x2="13824" y2="-23552"/>
<line x1="10240" y1="-23040" x2="7680" y2="-25600"/>
<line x1="10240" y1="-19968" x2="10240" y2="-23040"/>
<line x1="10752" y1="-18944" x2="10240" y2="-19968"/>
<line x1="13824" y1="-23552" x2="13824" y2="-19968"/>
<line x1="13824" y1="-19968" x2="13312" y2="-18944"/>
<line x1="13312" y1="-6144" x2="17920" y2="-6144"/>
<line x1="13312" y1="-7680" x2="13312" y2="-6144"/>
<line x1="10752" y1="-4096" x2="10752" y2="-7680"/>
<line x1="17920" y1="-3584" x2="17920" y2="3072"/>
<line x1="15360" y1="2048" x2="15360" y2="-1024"/>
<line x1="16384" y1="3072" x2="15360" y2="2048"/>
<line x1="16384" y1="4608" x2="16384" y2="3072"/>
<line x1="14679" y1="6321" x2="14848" y2="6128"/>
<line x1="14848" y1="6128" x2="14672" y2="5936"/>
<line x1="14672" y1="5936" x2="15030" y2="5577"/>
<line x1="15030" y1="5577" x2="15216" y2="5760"/>
<line x1="15216" y1="5760" x2="14848" y2="6128"/>
<line x1="15216" y1="5760" x2="15762" y2="5233"/>
<line x1="15762" y1="5233" x2="16123" y2="4871"/>
<line x1="16847" y1="5595" x2="16452" y2="5976"/>
<line x1="16123" y1="4871" x2="16384" y2="4608"/>
<line x1="17424" y1="5580" x2="16847" y2="5595"/>
<line x1="17920" y1="5120" x2="17424" y2="5580"/>
<line x1="17920" y1="3072" x2="17920" y2="4608"/>
<line x1="17920" y1="3072" x2="16384" y2="3072"/>
<line x1="2048" y1="-20480" x2="-4608" y2="-20480"/>
<line x1="-7168" y1="-23040" x2="-7168" y2="-24064"/>
<line x1="-18944" y1="-24576" x2="-18432" y2="-24576"/>
<line x1="-18944" y1="-23552" x2="-20992" y2="-23552"/>
<line x1="-25856" y1="-25600" x2="-25856" y2="-26112"/>
<line x1="-25856" y1="-26112" x2="-25344" y2="-26112"/>
<line x1="-25344" y1="-26112" x2="-25344" y2="-25600"/>
<line x1="-23808" y1="-25600" x2="-23808" y2="-26112"/>
<line x1="-23808" y1="-26112" x2="-23296" y2="-26112"/>
<line x1="-23296" y1="-26112" x2="-23296" y2="-25600"/>
<line x1="-20480" y1="-17920" x2="-20224" y2="-17920"/>
<line x1="-20224" y1="-17920" x2="-20224" y2="-16896"/>
<line x1="-20224" y1="-16896" x2="-20480" y2="-16896"/>
<line x1="-28160" y1="-17408" x2="-27648" y2="-17408"/>
<line x1="-27648" y1="-16896" x2="-28160" y2="-16896"/>
<line x1="-28160" y1="-16896" x2="-28160" y2="-17408"/>
<line x1="17920" y1="4608" x2="17920" y2="5120"/>
<line x1="17920" y1="4608" x2="16384" y2="4608"/>
<line x1="-4608" y1="3072" x2="-4096" y2="1536"/>
<line x1="-3072" y1="2560" x2="-3584" y2="3072"/>
<line x1="-3584" y1="3072" x2="-3584" y2="5632"/>
<line x1="-5632" y1="5632" x2="-4608" y2="3072"/>
<line x1="-5120" y1="13568" x2="-5120" y2="13312"/>
<line x1="-4096" y1="13568" x2="-4096" y2="14080"/>
<line x1="-4096" y1="13568" x2="-5120" y2="13568"/>
<line x1="-5120" y1="14080" x2="-5120" y2="13568"/>
<line x1="-4096" y1="14080" x2="-4096" y2="14336"/>
<line x1="-5120" y1="14080" x2="-4096" y2="14080"/>
<line x1="-16384" y1="16384" x2="-15872" y2="16384"/>
<line x1="-16384" y1="18944" x2="-16384" y2="18432"/>
<line x1="-15872" y1="17920" x2="-15872" y2="18432"/>
<line x1="-15872" y1="18432" x2="-15872" y2="18944"/>
<line x1="-16384" y1="18432" x2="-16384" y2="17920"/>
<line x1="-16896" y1="19456" x2="-16384" y2="18944"/>
<line x1="-15872" y1="18944" x2="-15360" y2="19456"/>
<line x1="-16896" y1="19968" x2="-16896" y2="19456"/>
<line x1="-15360" y1="19456" x2="-15360" y2="19968"/>
<line x1="-15872" y1="16896" x2="-15872" y2="17920"/>
<line x1="-16384" y1="17920" x2="-16384" y2="16384"/>
<line x1="-3456" y1="-13176" x2="-7380" y2="-8676"/>
<line x1="-6372" y1="-9216" x2="-6111" y2="-9345"/>
<line x1="-6242" y1="-8721" x2="-6372" y2="-9216"/>
<line x1="-5904" y1="-8820" x2="-6242" y2="-8721"/>
<line x1="-13312" y1="-22528" x2="-11776" y2="-19456"/>
<line x1="-13312" y1="-18432" x2="-14848" y2="-21504"/>
<line x1="-5302" y1="-20421" x2="-5616" y2="-20016"/>
<line x1="-5664" y1="-20784" x2="-5302" y2="-20421"/>
<line x1="-6012" y1="-20448" x2="-5664" y2="-20784"/>
<line x1="-3072" y1="24576" x2="-3072" y2="23552"/>
<line x1="-27648" y1="-16384" x2="-27648" y2="-16896"/>
<line x1="-27136" y1="-16384" x2="-27648" y2="-16384"/>
<line x1="-27136" y1="-16896" x2="-27136" y2="-16384"/>
<line x1="-9984" y1="-29696" x2="-9984" y2="-30208"/>
<line x1="-9984" y1="-30208" x2="-9472" y2="-30208"/>
<line x1="-9472" y1="-30208" x2="-9472" y2="-29696"/>
<line x1="11948" y1="17168" x2="11954" y2="16923"/>
<line x1="12978" y1="17178" x2="11948" y2="17168"/>
<line x1="12978" y1="16923" x2="12978" y2="17178"/>
<line x1="16595" y1="9804" x2="16588" y2="9396"/>
<line x1="16588" y1="9396" x2="17603" y2="9396"/>
<line x1="17603" y1="9396" x2="17619" y2="9804"/>
<line x1="6144" y1="21504" x2="15872" y2="21504"/>
<line x1="10752" y1="-7680" x2="8192" y2="-10240"/>
<line x1="15872" y1="-10240" x2="13312" y2="-7680"/>
<line x1="8192" y1="-10240" x2="8192" y2="-13312"/>
<line x1="10240" y1="-17920" x2="10752" y2="-18944"/>
<line x1="13312" y1="-18944" x2="13824" y2="-17920"/>
<line x1="13824" y1="-17920" x2="13824" y2="-15360"/>
<line x1="13824" y1="-15360" x2="15872" y2="-13312"/>
<line x1="8192" y1="-13312" x2="10240" y2="-15360"/>
<line x1="10240" y1="-15360" x2="10240" y2="-17920"/>
<line x1="15872" y1="-13312" x2="21504" y2="-13312"/>
<line x1="19968" y1="-10240" x2="15872" y2="-10240"/>
<line x1="21504" y1="-13312" x2="21504" y2="-11776"/>
<line x1="12288" y1="-1024" x2="10752" y2="-4096"/>
<line x1="15360" y1="-1024" x2="12288" y2="-1024"/>
<line x1="21504" y1="-3584" x2="17920" y2="-3584"/>
<line x1="21504" y1="-11776" x2="21504" y2="-3584"/>
<line x1="17920" y1="-6144" x2="19968" y2="-6144"/>
<line x1="19968" y1="-6144" x2="19968" y2="-10240"/>
<line x1="-3072" y1="30208" x2="-3072" y2="24576"/>
<line x1="17408" y1="30208" x2="-3072" y2="30208"/>
<line x1="17408" y1="21504" x2="17408" y2="30208"/>
<line x1="16896" y1="21504" x2="17408" y2="21504"/>
<line x1="16896" y1="20992" x2="16896" y2="21504"/>
<line x1="16384" y1="20992" x2="16896" y2="20992"/>
<line x1="16384" y1="21504" x2="16384" y2="20992"/>
<line x1="15872" y1="21504" x2="16384" y2="21504"/>
<line x1="-4096" y1="22528" x2="-3072" y2="22528"/>
<line x1="-3072" y1="23552" x2="-4096" y2="23552"/>
<line x1="-4096" y1="19968" x2="-4096" y2="22528"/>
<line x1="-5120" y1="22528" x2="-5120" y2="19968"/>
<line x1="-5120" y1="24576" x2="-5120" y2="22528"/>
<line x1="-4096" y1="23552" x2="-4096" y2="25600"/>
<line x1="-4096" y1="25600" x2="-13824" y2="25600"/>
<line x1="-12800" y1="24576" x2="-5120" y2="24576"/>
<line x1="-5120" y1="19968" x2="-4096" y2="19968"/>
</g>
</svg>