<?xml-stylesheet type="text/css" href="map.css"?>
<svg xmlns="http://www.w3.org/2000/svg" viewBox="-17370 -250 43220 19060">
<g class="floors">
<polygon class="poly" points="11776,6144 12288,6144 12288,6656 11776,6656"/>
<polygon class="poly-platform" points="8704,6144 11776,6144 11776,6656 8704,6656"/>
<polygon class="poly" points="3072,5120 4608,4096 6656,3584 6656,5632 6144,6144 3072,6144"/>
<polygon class="poly-platform" points="3072,6144 6144,6144 6144,6656 3072,6656"/>
<polygon class="poly" points="3072,7680 3072,6656 6144,6656 6656,7168 6656,9216 4608,8704"/>
<polygon class="poly" points="8192,7168 8704,6656 11776,6656 11776,7680 10240,8704 8192,9216"/>
<polygon class="poly" points="2560,6144 3072,6144 3072,6656 2560,6656"/>
<polygon class="poly" points="8192,3584 10240,4096 11776,5120 11776,6144 8704,6144 8192,5632"/>
<polygon class="poly" points="14848,4096 17408,4096 17408,5120 14848,5120"/>
<polygon class="poly" points="17408,4096 17920,4096 17920,5120 17408,5120"/>
<polygon class="poly" points="14848,7680 17408,7680 17408,8704 14848,8704"/>
<polygon class="poly" points="17408,7680 17920,7680 17920,8704 17408,8704"/>
<polygon class="poly" points="17408,8704 17920,8704 17920,9216 17408,9216"/>
<polygon class="poly" points="17408,9216 17920,9216 17920,9728"/>
<polygon class="poly" points="17408,3584 17920,3584 17920,4096 17408,4096"/>
<polygon class="poly" points="17920,3072 17920,3584 17408,3584"/>
<polygon class="poly" points="13312,4096 14848,4096 14848,5120 12288,5120"/>
<polygon class="poly" points="12288,7680 14848,7680 14848,8704 13312,8704"/>
<polygon class="poly" points="17408,2560 17920,3072 17408,3584 16896,3072"/>
<polygon class="poly" points="16384,2560 16896,2048 17408,2560 16896,3072"/>
<polygon class="poly" points="6656,1536 8192,1536 8192,2048 6656,2048"/>
<polygon class="poly" points="6656,2048 8192,2048 8192,3584 6656,3584"/>
<polygon class="poly" points="6656,9216 8192,9216 8192,10752 6656,10752"/>
<polygon class="poly" points="6656,10752 8192,10752 8192,11264 6656,11264"/>
<polygon class="poly" points="16384,10240 16896,10752 16384,11264 15872,10752"/>
<polygon class="poly" points="16384,10240 16896,9728 17408,10240 16896,10752"/>
<polygon class="poly" points="16896,9728 17408,9216 17920,9728 17408,10240"/>
<polygon class="poly" points="15858,1536 16384,1536 15872,2048"/>
<polygon class="poly" points="16384,1536 16896,2048 16384,2560 15872,2048"/>
<polygon class="poly" points="15872,10752 16384,11264 15872,11264"/>
<polygon class="poly" points="15336,1536 15858,1536 15872,2048 15335,2048"/>
<polygon class="poly" points="14823,1536 15336,1536 15335,2048 14823,2048"/>
<polygon class="poly" points="14310,1536 14823,1536 14823,2048 14310,2048"/>
<polygon class="poly" points="13823,1536 14310,1536 14310,2048 13824,2048"/>
<polygon class="poly" points="13311,1536 13823,1536 13824,2048 13311,2048"/>
<polygon class="poly" points="12798,1536 13311,1536 13311,2048 12797,2048"/>
<polygon class="poly" points="15335,10752 15872,10752 15872,11264 15336,11264"/>
<polygon class="poly" points="14823,10752 15335,10752 15336,11264 14823,11264"/>
<polygon class="poly" points="14310,10752 14823,10752 14823,11264 14310,11264"/>
<polygon class="poly" points="13824,10752 14310,10752 14310,11264 13824,11264"/>
<polygon class="poly" points="13310,10752 13824,10752 13824,11264 13311,11264"/>
<polygon class="poly" points="12800,10752 13310,10752 13311,11264 12800,11264"/>
<polygon class="poly" points="12288,1536 12798,1536 12797,2048 12288,2048"/>
<polygon class="poly" points="11776,1536 12288,1536 12288,2048 11776,2048"/>
<polygon class="poly" points="11264,1536 11776,1536 11776,2048 11264,2048"/>
<polygon class="poly" points="8192,1536 11264,1536 11264,2048 8192,2048"/>
<polygon class="poly" points="8192,10752 11264,10752 11264,11264 8192,11264"/>
<polygon class="poly" points="0,8192 512,7680 512,9216 0,9216"/>
<polygon class="poly" points="-1024,8192 0,8192 0,9216 -1024,9216"/>
<polygon class="poly-platform" points="-8384,8192 -8192,8192 -8192,9216 -8384,9216"/>
<polygon class="poly" points="512,4096 1536,4096 2560,5120 512,5120"/>
<polygon class="poly" points="512,5120 2560,5120 2560,6144 2560,6656 2560,7680 512,7680"/>
<polygon class="poly" points="512,7680 2560,7680 1536,9216 512,9216"/>
<polygon class="poly" points="0,3584 512,4096 512,5120 0,4614"/>
<polygon class="poly" points="-1024,4608 0,3584 0,4614 0,5859 -1024,5120"/>
<polygon class="poly" points="0,5859 0,8192 -1024,7168 -1024,6656"/>
<polygon class="poly" points="-1024,7168 0,8192 -1024,8192 -1024,8008"/>
<polygon class="poly" points="-2161,3584 0,3584 -1024,4608 -1536,4608"/>
<polygon class="poly" points="-4239,3584 -2161,3584 -3072,4608 -3584,4608"/>
<polygon class="poly" points="-6291,3584 -4239,3584 -5120,4608 -5632,4608"/>
<polygon class="poly" points="-8192,3584 -6291,3584 -7168,4608 -7680,4608"/>
<polygon class="poly" points="-8192,3584 -7680,4608 -7680,5120 -8192,6019"/>
<polygon class="poly" points="-5632,7168 -5120,7168 -4285,8008 -5068,8008 -5632,8008 -6356,8008"/>
<polygon class="poly" points="-3584,7168 -3072,7168 -2241,8008 -3072,8008 -3584,8008 -4285,8008"/>
<polygon class="poly" points="-1536,7168 -1024,7168 -1024,8008 -1216,8008 -1536,8008 -2241,8008"/>
<polygon class="poly" points="-7168,6656 -6384,5908 -5632,6656 -5632,7168 -6356,8008 -7168,7168"/>
<polygon class="poly" points="-7680,5120 -7168,5120 -6384,5908 -7168,6656 -7680,6656 -8192,6019"/>
<polygon class="poly" points="-7168,4608 -6291,3584 -5632,4608 -5632,5120 -6384,5908 -7168,5120"/>
<polygon class="poly" points="-3072,4608 -2161,3584 -1536,4608 -1536,5120 -2298,5886 -3072,5120"/>
<polygon class="poly" points="-1536,5120 -1024,5120 0,5859 -1024,6656 -1536,6656 -2298,5886"/>
<polygon class="poly" points="-3072,6656 -2298,5886 -1536,6656 -1536,7168 -2241,8008 -3072,7168"/>
<polygon class="poly" points="-4332,5874 -3584,5120 -3072,5120 -2298,5886 -3072,6656 -3584,6656"/>
<polygon class="poly" points="-5120,4608 -4239,3584 -3584,4608 -3584,5120 -4332,5874 -5120,5120"/>
<polygon class="poly" points="-5120,6656 -4332,5874 -3584,6656 -3584,7168 -4285,8008 -5120,7168"/>
<polygon class="poly" points="-6384,5908 -5632,5120 -5120,5120 -4332,5874 -5120,6656 -5632,6656"/>
<polygon class="poly" points="-3072,8008 -2241,8008 -1536,8008 -1536,8192 -3072,8192"/>
<polygon class="poly" points="-5068,8008 -4285,8008 -3584,8008 -3585,8192 -5069,8192"/>
<polygon class="poly" points="-7168,8008 -6356,8008 -5632,8008 -5632,8192 -7168,8192"/>
<polygon class="poly" points="-8192,8192 -7168,8192 -5632,8192 -5632,9216 -8192,9216"/>
<polygon class="poly" points="-5632,8192 -5069,8192 -3585,8192 -3072,8192 -3072,9215 -5632,9216"/>
<polygon class="poly-platform" points="-1216,8192 -1024,8192 -1024,9216 -1216,9215"/>
<polygon class="poly" points="-3072,8192 -1536,8192 -1216,8192 -1216,9215 -3072,9215"/>
<polygon class="poly" points="-8192,6019 -7680,6656 -7680,7168 -8192,8008"/>
<polygon class="poly" points="-7680,7168 -7168,7168 -6356,8008 -7168,8008 -8192,8008"/>
<polygon class="poly" points="-8704,8192 -8384,8192 -8384,9216 -8704,9216"/>
<polygon class="poly" points="-10752,6972 -9728,6972 -9728,7168 -10752,7168"/>
<polygon class="poly" points="-10752,5312 -9728,5312 -9728,6972 -10752,6972"/>
<polygon class="poly" points="-11956,8192 -11776,8192 -11776,9216 -11956,9216"/>
<polygon class="poly" points="-10752,10240 -9728,10240 -9728,10416 -10752,10416"/>
<polygon class="poly" points="-10752,10416 -9728,10416 -9728,12152 -10752,12152"/>
<polygon class="poly" points="-11466,7882 -11072,7488 -11072,9888 -11466,9516"/>
<polygon class="poly" points="-11776,8192 -11466,7882 -11466,9516 -11776,9216"/>
<polygon class="poly" points="-10752,7168 -9728,7168 -8704,8192 -11072,7488"/>
<polygon class="poly" points="-11072,7488 -8704,8192 -8704,9216 -11072,9888"/>
<polygon class="poly" points="-11072,9888 -8704,9216 -9728,10240 -10752,10240"/>
<polygon class="poly" points="4096,1536 6656,1536 6656,2048 4096,2048"/>
<polygon class="poly" points="3072,1536 4096,1536 4096,2048 3072,2048"/>
<polygon class="poly-platform" points="3072,2048 4096,2048 4096,3072 3072,3072"/>
<polygon class="poly" points="3072,3072 4096,3072 4096,3584 3072,3584"/>
<polygon class="poly" points="3072,3584 4096,3584 4540,4028 3072,5027"/>
<polygon class="poly" points="4540,4028 4608,4096 3072,5120 3072,5027"/>
<polygon class="poly" points="-13600,8192 -11956,8192 -11956,9216 -13600,9216"/>
<polygon class="poly" points="-13984,7648 -13600,8192 -13600,9216 -13984,9536"/>
<polygon class="poly" points="-15552,6784 -14112,6976 -13984,7648 -13984,9536 -14304,10112 -15584,10304"/>
<polygon class="poly" points="-15072,5536 -13824,5920 -14112,6976 -15552,6784"/>
<polygon class="poly" points="-13568,4160 -12896,5184 -13824,5920 -15072,5536"/>
<polygon class="poly" points="-13568,4160 -12416,3776 -12192,4928 -12896,5184"/>
<polygon class="poly" points="-12416,3776 -11552,3744 -11616,4896 -12192,4928"/>
<polygon class="poly" points="-11552,3744 -10752,3872 -11072,5024 -11616,4896"/>
<polygon class="poly" points="-10752,3872 -9728,4352 -10752,5312 -11072,5024"/>
<polygon class="poly" points="-9728,4352 -9728,5312 -10752,5312"/>
<polygon class="poly" points="-10752,12152 -9728,12152 -9728,12928"/>
<polygon class="poly" points="-11264,12480 -10752,12152 -9728,12928 -10592,13600"/>
<polygon class="poly" points="-12096,12608 -11264,12480 -10592,13600 -11936,13760"/>
<polygon class="poly" points="-13024,12384 -12096,12608 -11936,13760 -13344,13504"/>
<polygon class="poly" points="-13728,11840 -13024,12384 -13344,13504 -14496,12672"/>
<polygon class="poly" points="-15296,11264 -14048,11104 -13728,11840 -14496,12672"/>
<polygon class="poly" points="-15584,10304 -14304,10112 -14048,11104 -15296,11264"/>
<polygon class="poly" points="12288,5120 14848,5120 14848,5632 14848,7168 14848,7680 12288,7680 12288,6656 12288,6144"/>
<polygon class="poly" points="22016,8192 22528,8704 19968,8704 20480,8192"/>
<polygon class="poly" points="21632,9728 21632,9856 20864,9856 20864,9728"/>
<polygon class="poly" points="20096,11520 20096,13184 19968,13184 19968,11520"/>
<polygon class="poly" points="22528,11520 22528,13184 22400,13184 22400,11520"/>
<polygon class="poly-platform" points="6656,5632 8192,5632 7680,6144 7168,6144"/>
<polygon class="poly-platform" points="7680,6144 8192,5632 8704,6144 8704,6656 8192,7168 7680,6656"/>
<polygon class="poly-platform" points="6144,6144 6656,5632 7168,6144 7168,6656 6656,7168 6144,6656"/>
<polygon class="poly-platform" points="7168,6656 7680,6656 8192,7168 6656,7168"/>
<polygon class="poly" points="6656,3584 8192,3584 8192,5632 6656,5632"/>
<polygon class="poly" points="6656,7168 8192,7168 8192,9216 6656,9216"/>
<polygon class="poly" points="-13824,3328 -12800,2944 -12480,3632 -13600,4016"/>
<polygon class="poly-platform" points="-12480,3632 -12416,3776 -13568,4160 -13600,4016"/>
<polygon class="poly" points="1536,10752 6656,10752 6656,11264 1536,11264"/>
<polygon class="poly" points="18944,8704 19968,8704 22528,8704 23552,8704 22528,9728 21632,9728 20864,9728 19968,9728"/>
<polygon class="poly" points="22528,11520 22528,9728 23552,8704 24064,10240 24064,15360 23552,16896 22528,15360 22528,13184"/>
<polygon class="poly" points="18432,10240 18944,8704 19968,9728 19968,11520 19968,13184 19968,15360 18944,16896 18432,15360"/>
<polygon class="poly" points="19968,15360 20096,15360 22400,15360 22528,15360 23552,16896 21504,16896 20992,16896 18944,16896"/>
<polygon class="poly" points="20096,9856 20864,9856 21632,9856 22400,9856 22400,11520 20096,11520"/>
<polygon class="poly" points="20096,11520 22400,11520 22400,13184 22400,15360 20096,15360 20096,13184"/>
<polygon class="poly" points="14848,5632 22016,5632 22016,7168 20480,7168 14848,7168"/>
<polygon class="poly" points="20480,7168 22016,7168 22016,7424 20480,7424"/>
<polygon class="poly" points="20480,7424 22016,7424 22016,7680 20480,7680"/>
<polygon class="poly" points="20480,7680 22016,7680 22016,7936 20480,7936"/>
<polygon class="poly" points="20480,7936 22016,7936 22016,8192 20480,8192"/>
<polygon class="poly" points="20992,16896 21504,16896 21504,17024 20992,17024"/>
<polygon class="poly" points="512,9344 1536,9344 1536,10752 1536,11264 512,11264"/>
<polygon class="poly-platform" points="512,9216 1536,9216 1536,9344 512,9344"/>
<polygon class="poly" points="11264,10752 12800,10752 12800,11264 11264,11264"/>
<polygon class="poly" points="-11936,13760 -10592,13600 -11296,15936"/>
<polygon class="poly" points="-10592,13600 -9728,12928 -1888,11264 -2336,15424 -11296,15936"/>
<polygon class="poly" points="-1888,11264 512,11264 1536,11264 1536,12832 -2336,15424"/>
</g>
<g class="elevation">
<line x1="3072" y1="5120" x2="4608" y2="4096"/>
<line x1="16384" y1="11264" x2="15872" y2="10752"/>
<line x1="16384" y1="10240" x2="16896" y2="10752"/>
<line x1="16896" y1="9728" x2="17408" y2="10240"/>
<line x1="17920" y1="9728" x2="17408" y2="9216"/>
<line x1="17408" y1="3584" x2="17920" y2="3072"/>
<line x1="16384" y1="2560" x2="16896" y2="2048"/>
<line x1="16896" y1="3072" x2="17408" y2="2560"/>
<line x1="16384" y1="1536" x2="15872" y2="2048"/>
<line x1="15335" y1="2048" x2="15336" y2="1536"/>
<line x1="14823" y1="2048" x2="14823" y2="1536"/>
<line x1="14310" y1="2048" x2="14310" y2="1536"/>
<line x1="13824" y1="2048" x2="13823" y2="1536"/>
<line x1="13311" y1="2048" x2="13311" y2="1536"/>
<line x1="12797" y1="2048" x2="12798" y2="1536"/>
<line x1="15336" y1="11264" x2="15335" y2="10752"/>
<line x1="14823" y1="11264" x2="14823" y2="10752"/>
<line x1="14310" y1="11264" x2="14310" y2="10752"/>
<line x1="13824" y1="11264" x2="13824" y2="10752"/>
<line x1="13311" y1="11264" x2="13310" y2="10752"/>
<line x1="12800" y1="11264" x2="12800" y2="10752"/>
<line x1="-5632" y1="8008" x2="-6356" y2="8008"/>
<line x1="-5632" y1="5120" x2="-6384" y2="5908"/>
<line x1="-6384" y1="5908" x2="-5632" y2="6656"/>
<line x1="-3584" y1="8008" x2="-4285" y2="8008"/>
<line x1="-4285" y1="8008" x2="-5068" y2="8008"/>
<line x1="-3585" y1="8192" x2="-5069" y2="8192"/>
<line x1="-1536" y1="8192" x2="-3072" y2="8192"/>
<line x1="-2241" y1="8008" x2="-3072" y2="8008"/>
<line x1="-5632" y1="8192" x2="-7168" y2="8192"/>
<line x1="-7168" y1="8008" x2="-6356" y2="8008"/>
<line x1="-1536" y1="8008" x2="-2241" y2="8008"/>
<line x1="-5120" y1="6656" x2="-4332" y2="5874"/>
<line x1="-4332" y1="5874" x2="-5120" y2="5120"/>
<line x1="-4332" y1="5874" x2="-3584" y2="5120"/>
<line x1="-3584" y1="6656" x2="-4332" y2="5874"/>
<line x1="-2298" y1="5886" x2="-3072" y2="5120"/>
<line x1="-3072" y1="6656" x2="-2298" y2="5886"/>
<line x1="-10752" y1="5312" x2="-9728" y2="5312"/>
<line x1="-9728" y1="12152" x2="-10752" y2="12152"/>
<line x1="-11466" y1="9516" x2="-11466" y2="7882"/>
<line x1="-9728" y1="12928" x2="-10592" y2="13600"/>
<line x1="-10592" y1="13600" x2="-11936" y2="13760"/>
<line x1="20864" y1="9728" x2="21632" y2="9728"/>
<line x1="21632" y1="9856" x2="20864" y2="9856"/>
<line x1="20096" y1="11520" x2="20096" y2="13184"/>
<line x1="19968" y1="13184" x2="19968" y2="11520"/>
<line x1="22528" y1="11520" x2="22528" y2="13184"/>
<line x1="22400" y1="13184" x2="22400" y2="11520"/>
<line x1="20480" y1="8192" x2="22016" y2="8192"/>
<line x1="21504" y1="16896" x2="20992" y2="16896"/>
<line x1="1536" y1="11264" x2="1536" y2="10752"/>
<line x1="22016" y1="7424" x2="20480" y2="7424"/>
<line x1="22016" y1="7168" x2="20480" y2="7168"/>
<line x1="22016" y1="7680" x2="20480" y2="7680"/>
<line x1="22016" y1="7936" x2="20480" y2="7936"/>
</g>
<g class="wall">
<line x1="6656" y1="5632" x2="6144" y2="6144"/>
<line x1="6656" y1="5632" x2="8192" y2="5632"/>
<line x1="8704" y1="6144" x2="8192" y2="5632"/>
<line x1="6144" y1="6144" x2="6144" y2="6656"/>
<line x1="8704" y1="6656" x2="8704" y2="6144"/>
<line x1="7680" y1="6144" x2="7168" y2="6144"/>
<line x1="7680" y1="6656" x2="7680" y2="6144"/>
<line x1="7168" y1="6656" x2="7680" y2="6656"/>
<line x1="7168" y1="6144" x2="7168" y2="6656"/>
<line x1="6144" y1="6656" x2="6656" y2="7168"/>
<line x1="8192" y1="7168" x2="6656" y2="7168"/>
<line x1="8192" y1="7168" x2="8704" y2="6656"/>
<line x1="8704" y1="6144" x2="11776" y2="6144"/>
<line x1="11776" y1="6656" x2="8704" y2="6656"/>
<line x1="6144" y1="6144" x2="3072" y2="6144"/>
<line x1="6144" y1="6656" x2="3072" y2="6656"/>
<line x1="3072" y1="6144" x2="3072" y2="5120"/>
<line x1="4608" y1="4096" x2="6656" y2="3584"/>
<line x1="3072" y1="6656" x2="3072" y2="6144"/>
<line x1="3072" y1="7680" x2="3072" y2="6656"/>
<line x1="4608" y1="8704" x2="3072" y2="7680"/>
<line x1="6656" y1="9216" x2="4608" y2="8704"/>
<line x1="11776" y1="6656" x2="11776" y2="6144"/>
<line x1="11776" y1="6656" x2="11776" y2="7680"/>
<line x1="11776" y1="7680" x2="10240" y2="8704"/>
<line x1="10240" y1="8704" x2="8192" y2="9216"/>
<line x1="11776" y1="6144" x2="12288" y2="6144"/>
<line x1="12288" y1="6144" x2="12288" y2="5120"/>
<line x1="12288" y1="6656" x2="11776" y2="6656"/>
<line x1="12288" y1="7680" x2="12288" y2="6656"/>
<line x1="2560" y1="6144" x2="3072" y2="6144"/>
<line x1="3072" y1="6656" x2="2560" y2="6656"/>
<line x1="2560" y1="5120" x2="2560" y2="6144"/>
<line x1="1536" y1="4096" x2="2560" y2="5120"/>
<line x1="2560" y1="6656" x2="2560" y2="7680"/>
<line x1="2560" y1="7680" x2="1536" y2="9216"/>
<line x1="1536" y1="9216" x2="512" y2="9216"/>
<line x1="512" y1="4096" x2="1536" y2="4096"/>
<line x1="8192" y1="3584" x2="10240" y2="4096"/>
<line x1="10240" y1="4096" x2="11776" y2="5120"/>
<line x1="11776" y1="5120" x2="11776" y2="6144"/>
<line x1="6656" y1="3584" x2="6656" y2="2048"/>
<line x1="8192" y1="2048" x2="8192" y2="3584"/>
<line x1="6656" y1="10752" x2="6656" y2="9216"/>
<line x1="8192" y1="9216" x2="8192" y2="10752"/>
<line x1="14848" y1="4096" x2="17408" y2="4096"/>
<line x1="17408" y1="8704" x2="14848" y2="8704"/>
<line x1="14848" y1="5120" x2="14848" y2="5632"/>
<line x1="17408" y1="5120" x2="14848" y2="5120"/>
<line x1="14848" y1="7680" x2="17408" y2="7680"/>
<line x1="17408" y1="9216" x2="17408" y2="8704"/>
<line x1="16896" y1="9728" x2="17408" y2="9216"/>
<line x1="16384" y1="10240" x2="16896" y2="9728"/>
<line x1="15872" y1="10752" x2="16384" y2="10240"/>
<line x1="17920" y1="8704" x2="17920" y2="9216"/>
<line x1="17920" y1="9216" x2="17920" y2="9728"/>
<line x1="17920" y1="9728" x2="17408" y2="10240"/>
<line x1="17408" y1="10240" x2="16896" y2="10752"/>
<line x1="8192" y1="10752" x2="11264" y2="10752"/>
<line x1="16384" y1="11264" x2="15872" y2="11264"/>
<line x1="17408" y1="7680" x2="17920" y2="7680"/>
<line x1="17920" y1="7680" x2="17920" y2="8704"/>
<line x1="16896" y1="10752" x2="16384" y2="11264"/>
<line x1="8192" y1="11264" x2="6656" y2="11264"/>
<line x1="6656" y1="1536" x2="8192" y2="1536"/>
<line x1="17920" y1="5120" x2="17408" y2="5120"/>
<line x1="17920" y1="4096" x2="17920" y2="5120"/>
<line x1="17408" y1="4096" x2="17408" y2="3584"/>
<line x1="17920" y1="3584" x2="17920" y2="4096"/>
<line x1="17920" y1="3072" x2="17920" y2="3584"/>
<line x1="17408" y1="3584" x2="16896" y2="3072"/>
<line x1="17408" y1="2560" x2="17920" y2="3072"/>
<line x1="16896" y1="3072" x2="16384" y2="2560"/>
<line x1="16896" y1="2048" x2="17408" y2="2560"/>
<line x1="12288" y1="5120" x2="13312" y2="4096"/>
<line x1="13312" y1="4096" x2="14848" y2="4096"/>
<line x1="13312" y1="8704" x2="12288" y2="7680"/>
<line x1="14848" y1="8704" x2="13312" y2="8704"/>
<line x1="15872" y1="11264" x2="15336" y2="11264"/>
<line x1="16384" y1="2560" x2="15872" y2="2048"/>
<line x1="16384" y1="1536" x2="16896" y2="2048"/>
<line x1="15858" y1="1536" x2="16384" y2="1536"/>
<line x1="15336" y1="1536" x2="15858" y2="1536"/>
<line x1="15872" y1="2048" x2="15335" y2="2048"/>
<line x1="14823" y1="1536" x2="15336" y2="1536"/>
<line x1="14310" y1="1536" x2="14823" y2="1536"/>
<line x1="15335" y1="2048" x2="14823" y2="2048"/>
<line x1="13823" y1="1536" x2="14310" y2="1536"/>
<line x1="14823" y1="2048" x2="14310" y2="2048"/>
<line x1="13311" y1="1536" x2="13823" y2="1536"/>
<line x1="14310" y1="2048" x2="13824" y2="2048"/>
<line x1="13824" y1="2048" x2="13311" y2="2048"/>
<line x1="12798" y1="1536" x2="13311" y2="1536"/>
<line x1="13311" y1="2048" x2="12797" y2="2048"/>
<line x1="15335" y1="10752" x2="15872" y2="10752"/>
<line x1="15336" y1="11264" x2="14823" y2="11264"/>
<line x1="14823" y1="10752" x2="15335" y2="10752"/>
<line x1="14823" y1="11264" x2="14310" y2="11264"/>
<line x1="14310" y1="10752" x2="14823" y2="10752"/>
<line x1="14310" y1="11264" x2="13824" y2="11264"/>
<line x1="13824" y1="10752" x2="14310" y2="10752"/>
<line x1="13824" y1="11264" x2="13311" y2="11264"/>
<line x1="13310" y1="10752" x2="13824" y2="10752"/>
<line x1="13311" y1="11264" x2="12800" y2="11264"/>
<line x1="12800" y1="10752" x2="13310" y2="10752"/>
<line x1="8192" y1="1536" x2="11264" y2="1536"/>
<line x1="12797" y1="2048" x2="12288" y2="2048"/>
<line x1="12288" y1="2048" x2="11776" y2="2048"/>
<line x1="12288" y1="1536" x2="12798" y2="1536"/>
<line x1="11776" y1="1536" x2="12288" y2="1536"/>
<line x1="11776" y1="2048" x2="11264" y2="2048"/>
<line x1="11264" y1="11264" x2="8192" y2="11264"/>
<line x1="11264" y1="2048" x2="8192" y2="2048"/>
<line x1="11264" y1="1536" x2="11776" y2="1536"/>
<line x1="512" y1="5120" x2="0" y2="4614"/>
<line x1="512" y1="9216" x2="0" y2="9216"/>
<line x1="512" y1="7680" x2="512" y2="5120"/>
<line x1="0" y1="8192" x2="512" y2="7680"/>
<line x1="0" y1="4614" x2="0" y2="5859"/>
<line x1="0" y1="3584" x2="512" y2="4096"/>
<line x1="-8192" y1="8192" x2="-7168" y2="8192"/>
<line x1="-5632" y1="9216" x2="-8192" y2="9216"/>
<line x1="-1024" y1="9216" x2="-1024" y2="8192"/>
<line x1="0" y1="9216" x2="-1024" y2="9216"/>
<line x1="-8192" y1="8192" x2="-8192" y2="9216"/>
<line x1="-8384" y1="8192" x2="-8192" y2="8192"/>
<line x1="-8192" y1="9216" x2="-8384" y2="9216"/>
<line x1="-8384" y1="9216" x2="-8384" y2="8192"/>
<line x1="-1024" y1="8192" x2="-1024" y2="8008"/>
<line x1="-1024" y1="8008" x2="-1216" y2="8008"/>
<line x1="-8384" y1="8192" x2="-8384" y2="8008"/>
<line x1="-1536" y1="7168" x2="-1024" y2="7168"/>
<line x1="-1536" y1="6656" x2="-1536" y2="7168"/>
<line x1="-1024" y1="6656" x2="-1536" y2="6656"/>
<line x1="-1024" y1="7168" x2="-1024" y2="6656"/>
<line x1="-3072" y1="7168" x2="-3072" y2="6656"/>
<line x1="-3072" y1="6656" x2="-3584" y2="6656"/>
<line x1="-3584" y1="6656" x2="-3584" y2="7168"/>
<line x1="-3584" y1="7168" x2="-3072" y2="7168"/>
<line x1="-5632" y1="7168" x2="-5120" y2="7168"/>
<line x1="-5632" y1="6656" x2="-5632" y2="7168"/>
<line x1="-5120" y1="6656" x2="-5632" y2="6656"/>
<line x1="-5120" y1="7168" x2="-5120" y2="6656"/>
<line x1="-7680" y1="7168" x2="-7168" y2="7168"/>
<line x1="-7168" y1="7168" x2="-7168" y2="6656"/>
<line x1="-7168" y1="6656" x2="-7680" y2="6656"/>
<line x1="-7680" y1="6656" x2="-7680" y2="7168"/>
<line x1="-7680" y1="4608" x2="-7680" y2="5120"/>
<line x1="-7168" y1="4608" x2="-7680" y2="4608"/>
<line x1="-7168" y1="5120" x2="-7168" y2="4608"/>
<line x1="-7680" y1="5120" x2="-7168" y2="5120"/>
<line x1="-5632" y1="4608" x2="-5632" y2="5120"/>
<line x1="-5120" y1="4608" x2="-5632" y2="4608"/>
<line x1="-5120" y1="5120" x2="-5120" y2="4608"/>
<line x1="-5632" y1="5120" x2="-5120" y2="5120"/>
<line x1="-3584" y1="4608" x2="-3584" y2="5120"/>
<line x1="-3072" y1="4608" x2="-3584" y2="4608"/>
<line x1="-3072" y1="5120" x2="-3072" y2="4608"/>
<line x1="-3584" y1="5120" x2="-3072" y2="5120"/>
<line x1="-1536" y1="4608" x2="-1536" y2="5120"/>
<line x1="-1024" y1="4608" x2="-1536" y2="4608"/>
<line x1="-1024" y1="5120" x2="-1024" y2="4608"/>
<line x1="-1536" y1="5120" x2="-1024" y2="5120"/>
<line x1="-2161" y1="3584" x2="0" y2="3584"/>
<line x1="-8192" y1="6019" x2="-8192" y2="3584"/>
<line x1="-5069" y1="8192" x2="-5068" y2="8008"/>
<line x1="-3072" y1="8008" x2="-3584" y2="8008"/>
<line x1="-3585" y1="8192" x2="-3072" y2="8192"/>
<line x1="-3584" y1="8008" x2="-3585" y2="8192"/>
<line x1="-3072" y1="8192" x2="-3072" y2="8008"/>
<line x1="-1216" y1="8008" x2="-1536" y2="8008"/>
<line x1="-1536" y1="8192" x2="-1216" y2="8192"/>
<line x1="-1536" y1="8008" x2="-1536" y2="8192"/>
<line x1="-5068" y1="8008" x2="-5632" y2="8008"/>
<line x1="-5632" y1="8192" x2="-5069" y2="8192"/>
<line x1="-5632" y1="8008" x2="-5632" y2="8192"/>
<line x1="-7168" y1="8192" x2="-7168" y2="8008"/>
<line x1="-8192" y1="3584" x2="-6291" y2="3584"/>
<line x1="-6291" y1="3584" x2="-4239" y2="3584"/>
<line x1="-4239" y1="3584" x2="-2161" y2="3584"/>
<line x1="0" y1="5859" x2="0" y2="8192"/>
<line x1="-3072" y1="9215" x2="-5632" y2="9216"/>
<line x1="-1024" y1="9216" x2="-1216" y2="9215"/>
<line x1="-1216" y1="9215" x2="-3072" y2="9215"/>
<line x1="-1216" y1="8192" x2="-1024" y2="8192"/>
<line x1="-1216" y1="9215" x2="-1216" y2="8192"/>
<line x1="-1216" y1="8008" x2="-1216" y2="8192"/>
<line x1="-8384" y1="8008" x2="-8192" y2="8008"/>
<line x1="-7168" y1="8008" x2="-8192" y2="8008"/>
<line x1="-8192" y1="8008" x2="-8192" y2="6019"/>
<line x1="-8192" y1="8008" x2="-8192" y2="8192"/>
<line x1="-9728" y1="7168" x2="-8704" y2="8192"/>
<line x1="-11776" y1="8192" x2="-11466" y2="7882"/>
<line x1="-10752" y1="10240" x2="-11072" y2="9888"/>
<line x1="-8704" y1="9216" x2="-9728" y2="10240"/>
<line x1="-8704" y1="8192" x2="-8384" y2="8192"/>
<line x1="-8384" y1="9216" x2="-8704" y2="9216"/>
<line x1="-10752" y1="10416" x2="-10752" y2="10240"/>
<line x1="-9728" y1="10240" x2="-9728" y2="10416"/>
<line x1="-10752" y1="7168" x2="-10752" y2="6972"/>
<line x1="-9728" y1="6972" x2="-9728" y2="7168"/>
<line x1="-11956" y1="8192" x2="-11776" y2="8192"/>
<line x1="-11776" y1="9216" x2="-11956" y2="9216"/>
<line x1="-9728" y1="5312" x2="-9728" y2="6972"/>
<line x1="-10752" y1="6972" x2="-10752" y2="5312"/>
<line x1="-13600" y1="8192" x2="-11956" y2="8192"/>
<line x1="-10752" y1="12152" x2="-10752" y2="10416"/>
<line x1="-9728" y1="10416" x2="-9728" y2="12152"/>
<line x1="-11466" y1="7882" x2="-11072" y2="7488"/>
<line x1="-11466" y1="9516" x2="-11776" y2="9216"/>
<line x1="-11072" y1="7488" x2="-10752" y2="7168"/>
<line x1="-11072" y1="9888" x2="-11466" y2="9516"/>
<line x1="3072" y1="1536" x2="4096" y2="1536"/>
<line x1="6656" y1="2048" x2="4096" y2="2048"/>
<line x1="3072" y1="2048" x2="3072" y2="1536"/>
<line x1="4096" y1="2048" x2="3072" y2="2048"/>
<line x1="4096" y1="1536" x2="6656" y2="1536"/>
<line x1="4096" y1="2048" x2="4096" y2="3072"/>
<line x1="4096" y1="3072" x2="3072" y2="3072"/>
<line x1="3072" y1="3072" x2="3072" y2="2048"/>
<line x1="4096" y1="3072" x2="4096" y2="3584"/>
<line x1="4096" y1="3584" x2="4540" y2="4028"/>
<line x1="3072" y1="3584" x2="3072" y2="3072"/>
<line x1="3072" y1="5027" x2="3072" y2="3584"/>
<line x1="3072" y1="5120" x2="3072" y2="5027"/>
<line x1="4540" y1="4028" x2="4608" y2="4096"/>
<line x1="-11956" y1="9216" x2="-13600" y2="9216"/>
<line x1="-13600" y1="9216" x2="-13984" y2="9536"/>
<line x1="-13984" y1="9536" x2="-14304" y2="10112"/>
<line x1="-11264" y1="12480" x2="-10752" y2="12152"/>
<line x1="-12096" y1="12608" x2="-11264" y2="12480"/>
<line x1="-13024" y1="12384" x2="-12096" y2="12608"/>
<line x1="-13728" y1="11840" x2="-13024" y2="12384"/>
<line x1="-14304" y1="10112" x2="-14048" y2="11104"/>
<line x1="-14048" y1="11104" x2="-13728" y2="11840"/>
<line x1="-13984" y1="7648" x2="-13600" y2="8192"/>
<line x1="-14112" y1="6976" x2="-13984" y2="7648"/>
<line x1="-10752" y1="5312" x2="-11072" y2="5024"/>
<line x1="-11072" y1="5024" x2="-11616" y2="4896"/>
<line x1="-11616" y1="4896" x2="-12192" y2="4928"/>
<line x1="-12192" y1="4928" x2="-12896" y2="5184"/>
<line x1="-13824" y1="5920" x2="-14112" y2="6976"/>
<line x1="-12896" y1="5184" x2="-13824" y2="5920"/>
<line x1="-9728" y1="12152" x2="-9728" y2="12928"/>
<line x1="-11936" y1="13760" x2="-13344" y2="13504"/>
<line x1="-13344" y1="13504" x2="-14496" y2="12672"/>
<line x1="-14496" y1="12672" x2="-15296" y2="11264"/>
<line x1="-15296" y1="11264" x2="-15584" y2="10304"/>
<line x1="-15584" y1="10304" x2="-15552" y2="6784"/>
<line x1="-15552" y1="6784" x2="-15072" y2="5536"/>
<line x1="-15072" y1="5536" x2="-13568" y2="4160"/>
<line x1="-13568" y1="4160" x2="-12416" y2="3776"/>
<line x1="-12416" y1="3776" x2="-11552" y2="3744"/>
<line x1="-11552" y1="3744" x2="-10752" y2="3872"/>
<line x1="-10752" y1="3872" x2="-9728" y2="4352"/>
<line x1="-9728" y1="4352" x2="-9728" y2="5312"/>
<line x1="14848" y1="7168" x2="14848" y2="7680"/>
<line x1="24064" y1="10240" x2="24064" y2="15360"/>
<line x1="21632" y1="9856" x2="22400" y2="9856"/>
<line x1="20096" y1="11520" x2="20096" y2="9856"/>
<line x1="22400" y1="9856" x2="22400" y2="11520"/>
<line x1="22528" y1="8704" x2="23552" y2="8704"/>
<line x1="23552" y1="8704" x2="24064" y2="10240"/>
<line x1="18944" y1="8704" x2="19968" y2="8704"/>
<line x1="18432" y1="10240" x2="18944" y2="8704"/>
<line x1="18432" y1="15360" x2="18432" y2="10240"/>
<line x1="24064" y1="15360" x2="23552" y2="16896"/>
<line x1="23552" y1="16896" x2="21504" y2="16896"/>
<line x1="18944" y1="16896" x2="18432" y2="15360"/>
<line x1="22400" y1="15360" x2="22528" y2="15360"/>
<line x1="19968" y1="15360" x2="20096" y2="15360"/>
<line x1="21632" y1="9728" x2="21632" y2="9856"/>
<line x1="20096" y1="9856" x2="20864" y2="9856"/>
<line x1="20864" y1="9856" x2="20864" y2="9728"/>
<line x1="19968" y1="11520" x2="20096" y2="11520"/>
<line x1="20096" y1="15360" x2="20096" y2="13184"/>
<line x1="19968" y1="13184" x2="19968" y2="15360"/>
<line x1="20096" y1="13184" x2="19968" y2="13184"/>
<line x1="22400" y1="11520" x2="22528" y2="11520"/>
<line x1="22528" y1="15360" x2="22528" y2="13184"/>
<line x1="22400" y1="13184" x2="22400" y2="15360"/>
<line x1="22528" y1="13184" x2="22400" y2="13184"/>
<line x1="22016" y1="8192" x2="22528" y2="8704"/>
<line x1="19968" y1="8704" x2="20480" y2="8192"/>
<line x1="20992" y1="16896" x2="18944" y2="16896"/>
<line x1="7168" y1="6144" x2="6656" y2="5632"/>
<line x1="8192" y1="5632" x2="7680" y2="6144"/>
<line x1="8192" y1="7168" x2="7680" y2="6656"/>
<line x1="7168" y1="6656" x2="6656" y2="7168"/>
<line x1="-12480" y1="3632" x2="-12416" y2="3776"/>
<line x1="-13568" y1="4160" x2="-13600" y2="4016"/>
<line x1="-13600" y1="4016" x2="-13824" y2="3328"/>
<line x1="-12800" y1="2944" x2="-12480" y2="3632"/>
<line x1="-12480" y1="3632" x2="-13600" y2="4016"/>
<line x1="-13824" y1="3328" x2="-12800" y2="2944"/>
<line x1="1536" y1="10752" x2="6656" y2="10752"/>
<line x1="6656" y1="11264" x2="1536" y2="11264"/>
<line x1="22528" y1="9728" x2="21632" y2="9728"/>
<line x1="20864" y1="9728" x2="19968" y2="9728"/>
<line x1="22528" y1="11520" x2="22528" y2="9728"/>
<line x1="19968" y1="9728" x2="19968" y2="11520"/>
<line x1="14848" y1="5632" x2="22016" y2="5632"/>
<line x1="20480" y1="7168" x2="14848" y2="7168"/>
<line x1="20480" y1="7424" x2="20480" y2="7168"/>
<line x1="22016" y1="5632" x2="22016" y2="7168"/>
<line x1="22016" y1="7168" x2="22016" y2="7424"/>
<line x1="20480" y1="7680" x2="20480" y2="7424"/>
<line x1="22016" y1="7424" x2="22016" y2="7680"/>
<line x1="20480" y1="7936" x2="20480" y2="7680"/>
<line x1="20480" y1="8192" x2="20480" y2="7936"/>
<line x1="22016" y1="7680" x2="22016" y2="7936"/>
<line x1="22016" y1="7936" x2="22016" y2="8192"/>
<line x1="20992" y1="17024" x2="20992" y2="16896"/>
<line x1="21504" y1="17024" x2="20992" y2="17024"/>
<line x1="21504" y1="16896" x2="21504" y2="17024"/>
<line x1="512" y1="9344" x2="512" y2="9216"/>
<line x1="512" y1="9344" x2="1536" y2="9344"/>
<line x1="1536" y1="9216" x2="1536" y2="9344"/>
<line x1="1536" y1="9344" x2="1536" y2="10752"/>
<line x1="512" y1="11264" x2="512" y2="9344"/>
<line x1="11264" y1="10752" x2="12800" y2="10752"/>
<line x1="12800" y1="11264" x2="11264" y2="11264"/>
<line x1="1536" y1="11264" x2="1536" y2="12832"/>
<line x1="-1888" y1="11264" x2="512" y2="11264"/>
<line x1="-9728" y1="12928" x2="-1888" y2="11264"/>
<line x1="-11296" y1="15936" x2="-11936" y2="13760"/>
<line x1="-2336" y1="15424" x2="-11296" y2="15936"/>
<line x1="1536" y1="12832" x2="-2336" y2="15424"/>
</g>
</svg>